<?xml version="1.0" encoding="UTF-8" standalone="no" ?>
<!DOCTYPE sesx>
<sesx version="1.8">

  <session appBuild="13.0.2.35" appVersion="13.0" audioChannelType="stereo" bitDepth="24" duration="43901683" sampleRate="48000">
    <tracks>
      <audioTrack automationLaneOpenState="false" id="10007" index="1" select="true" visible="true">
        <trackParameters trackHeight="108" trackHue="211" trackMinimized="false">
          <name>Bonne piste</name>
        </trackParameters>
        <trackAudioParameters audioChannelType="stereo" automationMode="1" monitoring="false" recordArmed="false" solo="false" soloSafe="false">
          <trackOutput outputID="10000" type="trackID"/>
          <trackInput inputID="1"/>
          <component componentGuid="462c1c73-b690-41b7-bb2f-1b4f555645fc" componentID="Audition.Fader" id="trackFader" name="volume" powered="true">
            <parameter index="0" name="volume" parameterValue="1"/>
            <parameter index="1" name="static gain" parameterValue="1"/>
          </component>
          <component componentGuid="dd2cd1aa-ab2d-46ba-a896-a4129e52a29f" componentID="Audition.Mute" id="trackMute" name="Mute" powered="true">
            <parameter index="0" parameterValue="0"/>
            <parameter index="1" name="mute" parameterValue="0"/>
          </component>
          <component componentGuid="89c150fe-6db3-44dc-8927-797fb2e53f2e" componentID="Audition.StereoPanner" id="trackPan" name="StereoPanner" powered="true">
            <parameter index="0" name="Panoramique" parameterValue="0"/>
          </component>
          <component componentGuid="184d4110-04e4-4c91-9138-dcce02718744" componentID="Audition.EQ" id="trackEQ" name="EQ" powered="false">
            <parameter index="0" name="Fréquence papillon grave" parameterValue="0.000834028352983295917510986328125"/>
            <parameter index="1" name="Gain papillon grave" parameterValue="0.5"/>
            <parameter index="2" name="Fréquence papillon aigu" parameterValue="0.74979150295257568359375"/>
            <parameter index="3" name="Gain papillon aigu" parameterValue="0.5"/>
            <parameter index="4" name="Bande d’égaliseur 1 – Fréquence centrale" parameterValue="0.00125104258768260478973388671875"/>
            <parameter index="5" name="Bande d’égaliseur 1 – Facteur Q" parameterValue="0.000199989997781813144683837890625"/>
            <parameter index="6" name="Bande d’égaliseur 1 – Gain" parameterValue="0.5"/>
            <parameter index="7" name="Bande d’égaliseur 1 – Activation" parameterValue="1"/>
            <parameter index="8" name="Bande d’égaliseur 2 – Fréquence centrale" parameterValue="0.0075062550604343414306640625"/>
            <parameter index="9" name="Bande d’égaliseur 2 – Facteur Q" parameterValue="0.000199989997781813144683837890625"/>
            <parameter index="10" name="Bande d’égaliseur 2 – Gain" parameterValue="0.5"/>
            <parameter index="11" name="Bande d’égaliseur 2 – Activation" parameterValue="1"/>
            <parameter index="12" name="Bande d’égaliseur 3 – Fréquence centrale" parameterValue="0.0325271077454090118408203125"/>
            <parameter index="13" name="Bande d’égaliseur 3 – Facteur Q" parameterValue="0.000199989997781813144683837890625"/>
            <parameter index="14" name="Bande d’égaliseur 3 – Gain" parameterValue="0.5"/>
            <parameter index="15" name="Bande d’égaliseur 3 – Activation" parameterValue="1"/>
            <parameter index="16" name="Bande d’égaliseur 4 – Fréquence centrale" parameterValue="0.13261051476001739501953125"/>
            <parameter index="17" name="Bande d’égaliseur 4 – Facteur Q" parameterValue="0.000199989997781813144683837890625"/>
            <parameter index="18" name="Bande d’égaliseur 4 – Gain" parameterValue="0.5"/>
            <parameter index="19" name="Bande d’égaliseur 4 – Activation" parameterValue="1"/>
            <parameter index="20" name="Bande d’égaliseur 5 – Fréquence centrale" parameterValue="0.532944142818450927734375"/>
            <parameter index="21" name="Bande d’égaliseur 5 – Facteur Q" parameterValue="0.000199989997781813144683837890625"/>
            <parameter index="22" name="Bande d’égaliseur 5 – Gain" parameterValue="0.5"/>
            <parameter index="23" name="Bande d’égaliseur 5 – Activation" parameterValue="1"/>
            <parameter index="24" name="Gain principal" parameterValue="0.666666686534881591796875"/>
            <parameter index="25" name="Q constant" parameterValue="1"/>
            <parameter index="26" name="Ordre de filtre coupe-bas" parameterValue="0"/>
            <parameter index="27" name="Ordre de filtre coupe-haut" parameterValue="0"/>
            <parameter index="28" name="Mode ultra-silencieux" parameterValue="0"/>
            <parameter index="29" name="Filtre low-shelf activé" parameterValue="1"/>
            <parameter index="30" name="Filtre high-shelf activé" parameterValue="1"/>
            <parameter index="31" name="Taux d’échantillonnage d’origine" parameterValue="0.25"/>
            <parameter index="32" name="Bande d’égaliseur 1 – Largeur de bande" parameterValue="0.002499990165233612060546875"/>
            <parameter index="33" name="Bande d’égaliseur 2 – Largeur de bande" parameterValue="0.0099999904632568359375"/>
            <parameter index="34" name="Bande d’égaliseur 3 – Largeur de bande" parameterValue="0.0399999916553497314453125"/>
            <parameter index="35" name="Bande d’égaliseur 4 – Largeur de bande" parameterValue="0.15999998152256011962890625"/>
            <parameter index="36" name="Bande d’égaliseur 5 – Largeur de bande" parameterValue="0.63999998569488525390625"/>
            <parameter index="37" name="Filtre passe-haut – Activation" parameterValue="0"/>
            <parameter index="38" name="Fréquence coupure passe-haut" parameterValue="0"/>
            <parameter index="39" name="Pente passe-haut" parameterValue="0.4000000059604644775390625"/>
            <parameter index="40" name="Filtre passe-bas – Activation" parameterValue="0"/>
            <parameter index="41" name="Fréquence coupure passe-bas" parameterValue="0.833194315433502197265625"/>
            <parameter index="42" name="Pente passe-bas" parameterValue="0.4000000059604644775390625"/>
            <parameter index="43" name="Ignorer" parameterValue="0"/>
            <parameter index="44" name="Plage graphique basse" parameterValue="1"/>
          </component>
        </trackAudioParameters>
        <editParameter parameterIndex="0" slotIndex="4294967280"/>
        <audioClip clipAutoCrossfade="true" crossFadeHeadClipID="-1" crossFadeTailClipID="-1" endPoint="505335" fileID="0" hue="-1" id="0" lockedInTime="false" looped="false" name="jean-marie-bigard-son-coup-de-gueule-en-pleine-emission 48000 1" offline="false" select="false" sourceInPoint="0" sourceOutPoint="505335" startPoint="0" zOrder="0">
          <component componentGuid="713b90b5-4287-4b05-9adb-c76f2e8c8e7d" componentID="Audition.Fader" id="clipGain" name="volume" powered="true">
            <parameter index="0" name="volume" parameterValue="1">
              <parameterKeyframes enableSplines="false" readOnly="false">
                <parameterKeyframe sampleOffset="403119" select="false" type="linear" value="0.64999997615814208984375"/>
                <parameterKeyframe sampleOffset="421653" select="true" type="linear" value="0.963953435420989990234375"/>
                <parameterKeyframe sampleOffset="443277" select="false" type="linear" value="0.64999997615814208984375"/>
              </parameterKeyframes>
            </parameter>
            <parameter index="1" name="static gain" parameterValue="1"/>
          </component>
          <component componentGuid="062b3f56-0b1e-4187-a94c-cb17154da204" componentID="Audition.Mute" id="clipMute" name="Mute" powered="true">
            <parameter index="0" parameterValue="0"/>
            <parameter index="1" name="mute" parameterValue="0"/>
          </component>
          <component componentGuid="18780e7a-ac1d-46c0-b794-a31a8c028f3a" componentID="Audition.StereoPanner" id="clipPan" name="StereoPanner" powered="true">
            <parameter index="0" name="Panoramique" parameterValue="100"/>
          </component>
          <fadeIn crossFadeLinkType="linkedAsymmetric" endPoint="0" shape="19" startPoint="0" type="log"/>
          <fadeOut crossFadeLinkType="linkedAsymmetric" endPoint="505335" shape="0" startPoint="505335" type="cosine"/>
          <editParameter parameterIndex="0" slotIndex="4294967281"/>
          <editParameter parameterIndex="0" slotIndex="4294967280"/>
          <channelMap>
            <channel index="0" sourceIndex="0"/>
            <channel index="1" sourceIndex="1"/>
          </channelMap>
        </audioClip>
        <audioClip clipAutoCrossfade="true" crossFadeHeadClipID="-1" crossFadeTailClipID="-1" endPoint="715321" fileID="0" hue="-1" id="1" lockedInTime="false" looped="false" name="jean-marie-bigard-son-coup-de-gueule-en-pleine-emission 48000 1" offline="false" select="false" sourceInPoint="505335" sourceOutPoint="715321" startPoint="505335" zOrder="1">
          <component componentGuid="414528af-d71d-49dd-aec5-ff1e8963fcba" componentID="Audition.Fader" id="clipGain" name="volume" powered="true">
            <parameter index="0" name="volume" parameterValue="1"/>
            <parameter index="1" name="static gain" parameterValue="1"/>
          </component>
          <component componentGuid="53548475-faf0-4d6f-a783-90f15ed632c5" componentID="Audition.Mute" id="clipMute" name="Mute" powered="true">
            <parameter index="0" parameterValue="0"/>
            <parameter index="1" name="mute" parameterValue="0"/>
          </component>
          <component componentGuid="8bd36048-6e47-41a0-8e59-83a558c8a19e" componentID="Audition.StereoPanner" id="clipPan" name="StereoPanner" powered="true">
            <parameter index="0" name="Panoramique" parameterValue="100"/>
          </component>
          <fadeIn crossFadeLinkType="linkedAsymmetric" endPoint="0" shape="0" startPoint="0" type="cosine"/>
          <fadeOut crossFadeLinkType="linkedAsymmetric" endPoint="209986" shape="18" startPoint="209986" type="log"/>
          <editParameter parameterIndex="0" slotIndex="4294967281"/>
          <editParameter parameterIndex="0" slotIndex="4294967280"/>
          <channelMap>
            <channel index="0" sourceIndex="0"/>
            <channel index="1" sourceIndex="1"/>
          </channelMap>
        </audioClip>
        <audioClip clipAutoCrossfade="true" crossFadeHeadClipID="-1" crossFadeTailClipID="-1" endPoint="771584" fileID="1" hue="-1" id="2" lockedInTime="false" looped="false" name="jean-marie-bigard-son-coup-de-gueule-en-pleine-emission 48000 1_2" offline="false" select="false" sourceInPoint="0" sourceOutPoint="38323" startPoint="733261" zOrder="5">
          <properties properties="{&quot;ClipRemixParameters&quot;:{&quot;type&quot;:&quot;tree::any&quot;,&quot;value&quot;:{&quot;ChromaWeight&quot;:{&quot;type&quot;:&quot;float&quot;,&quot;value&quot;:1},&quot;EditLength&quot;:{&quot;type&quot;:&quot;float&quot;,&quot;value&quot;:1},&quot;EndAtEnd&quot;:{&quot;type&quot;:&quot;bool&quot;,&quot;value&quot;:true},&quot;MaximumSlack&quot;:{&quot;type&quot;:&quot;float&quot;,&quot;value&quot;:5},&quot;MinimumLoopBeats&quot;:{&quot;type&quot;:&quot;std::uint32_t&quot;,&quot;value&quot;:8},&quot;MusicRetargetingEnabled&quot;:{&quot;type&quot;:&quot;bool&quot;,&quot;value&quot;:false},&quot;SourceClipDuration&quot;:{&quot;type&quot;:&quot;array::std::int64_t&quot;,&quot;value&quot;:[-1,1]},&quot;SourceClipRangeStart&quot;:{&quot;type&quot;:&quot;array::std::int64_t&quot;,&quot;value&quot;:[0,1]},&quot;SplitIntoSegments&quot;:{&quot;type&quot;:&quot;bool&quot;,&quot;value&quot;:false},&quot;StartAtBeginning&quot;:{&quot;type&quot;:&quot;bool&quot;,&quot;value&quot;:true},&quot;StretchExact&quot;:{&quot;type&quot;:&quot;bool&quot;,&quot;value&quot;:false},&quot;TargetDuration&quot;:{&quot;type&quot;:&quot;array::std::int64_t&quot;,&quot;value&quot;:[0,1]},&quot;TimbreWeight&quot;:{&quot;type&quot;:&quot;float&quot;,&quot;value&quot;:1}}}}"/>
          <component componentGuid="20072049-7b1d-4baa-9ae3-9e2e44b7539f" componentID="Audition.Fader" id="clipGain" name="volume" powered="true">
            <parameter index="0" name="volume" parameterValue="1">
              <parameterKeyframes enableSplines="false" readOnly="false">
                <parameterKeyframe sampleOffset="18195" select="true" type="linear" value="0.64999997615814208984375"/>
              </parameterKeyframes>
            </parameter>
            <parameter index="1" name="static gain" parameterValue="1"/>
          </component>
          <component componentGuid="b4bf8ca1-c0e2-4613-a6d5-34dbc8ab92cf" componentID="Audition.Mute" id="clipMute" name="Mute" powered="true">
            <parameter index="0" parameterValue="0"/>
            <parameter index="1" name="mute" parameterValue="0"/>
          </component>
          <component componentGuid="17b74068-73d1-48f3-a061-9cdbc3ea628f" componentID="Audition.StereoPanner" id="clipPan" name="StereoPanner" powered="true">
            <parameter index="0" name="Panoramique" parameterValue="100"/>
          </component>
          <fadeIn crossFadeLinkType="linkedAsymmetric" endPoint="0" shape="0" startPoint="0" type="cosine"/>
          <fadeOut crossFadeLinkType="linkedAsymmetric" endPoint="38323" shape="0" startPoint="38323" type="cosine"/>
          <editParameter parameterIndex="0" slotIndex="4294967281"/>
          <editParameter parameterIndex="0" slotIndex="4294967280"/>
          <channelMap>
            <channel index="0" sourceIndex="0"/>
            <channel index="1" sourceIndex="1"/>
          </channelMap>
        </audioClip>
        <audioClip clipAutoCrossfade="true" crossFadeHeadClipID="-1" crossFadeTailClipID="-1" endPoint="960000" fileID="0" hue="-1" id="3" lockedInTime="false" looped="false" name="jean-marie-bigard-son-coup-de-gueule-en-pleine-emission 48000 1" offline="false" select="false" sourceInPoint="10086928" sourceOutPoint="10252993" startPoint="793935" zOrder="4">
          <component componentGuid="10a492ca-2c45-4375-9d38-85093708f5fd" componentID="Audition.Fader" id="clipGain" name="volume" powered="true">
            <parameter index="0" name="volume" parameterValue="0.646303594112396240234375"/>
            <parameter index="1" name="static gain" parameterValue="1"/>
          </component>
          <component componentGuid="31b7d709-97f3-4595-889f-5336896ec4b2" componentID="Audition.Mute" id="clipMute" name="Mute" powered="true">
            <parameter index="0" parameterValue="0"/>
            <parameter index="1" name="mute" parameterValue="0"/>
          </component>
          <component componentGuid="0ddf03b4-2762-4d9d-8219-40681b36b750" componentID="Audition.StereoPanner" id="clipPan" name="StereoPanner" powered="true">
            <parameter index="0" name="Panoramique" parameterValue="0"/>
          </component>
          <fadeIn crossFadeLinkType="linkedAsymmetric" endPoint="0" shape="19" startPoint="0" type="log"/>
          <fadeOut crossFadeLinkType="linkedAsymmetric" endPoint="166065" shape="18" startPoint="166065" type="log"/>
          <editParameter parameterIndex="0" slotIndex="4294967281"/>
          <editParameter parameterIndex="0" slotIndex="4294967280"/>
          <channelMap>
            <channel index="0" sourceIndex="0"/>
            <channel index="1" sourceIndex="1"/>
          </channelMap>
        </audioClip>
        <audioClip clipAutoCrossfade="true" crossFadeHeadClipID="-1" crossFadeTailClipID="-1" endPoint="1007573" fileID="2" hue="-1" id="4" lockedInTime="false" looped="false" name="jean-marie-bigard-son-coup-de-gueule-en-pleine-emission 48000 1_1_2" offline="false" select="false" sourceInPoint="0" sourceOutPoint="47573" startPoint="960000" zOrder="25">
          <properties properties="{&quot;ClipRemixParameters&quot;:{&quot;type&quot;:&quot;tree::any&quot;,&quot;value&quot;:{&quot;ChromaWeight&quot;:{&quot;type&quot;:&quot;float&quot;,&quot;value&quot;:1},&quot;EditLength&quot;:{&quot;type&quot;:&quot;float&quot;,&quot;value&quot;:1},&quot;EndAtEnd&quot;:{&quot;type&quot;:&quot;bool&quot;,&quot;value&quot;:true},&quot;MaximumSlack&quot;:{&quot;type&quot;:&quot;float&quot;,&quot;value&quot;:5},&quot;MinimumLoopBeats&quot;:{&quot;type&quot;:&quot;std::uint32_t&quot;,&quot;value&quot;:8},&quot;MusicRetargetingEnabled&quot;:{&quot;type&quot;:&quot;bool&quot;,&quot;value&quot;:false},&quot;SourceClipDuration&quot;:{&quot;type&quot;:&quot;array::std::int64_t&quot;,&quot;value&quot;:[-1,1]},&quot;SourceClipRangeStart&quot;:{&quot;type&quot;:&quot;array::std::int64_t&quot;,&quot;value&quot;:[0,1]},&quot;SplitIntoSegments&quot;:{&quot;type&quot;:&quot;bool&quot;,&quot;value&quot;:false},&quot;StartAtBeginning&quot;:{&quot;type&quot;:&quot;bool&quot;,&quot;value&quot;:true},&quot;StretchExact&quot;:{&quot;type&quot;:&quot;bool&quot;,&quot;value&quot;:false},&quot;TargetDuration&quot;:{&quot;type&quot;:&quot;array::std::int64_t&quot;,&quot;value&quot;:[0,1]},&quot;TimbreWeight&quot;:{&quot;type&quot;:&quot;float&quot;,&quot;value&quot;:1}}}}"/>
          <component componentGuid="1d5386e3-3abc-4504-b6dc-de097bab5eff" componentID="Audition.Fader" id="clipGain" name="volume" powered="true">
            <parameter index="0" name="volume" parameterValue="1"/>
            <parameter index="1" name="static gain" parameterValue="1"/>
          </component>
          <component componentGuid="26232258-e6e8-43bc-a3df-67993f2d7aac" componentID="Audition.Mute" id="clipMute" name="Mute" powered="true">
            <parameter index="0" parameterValue="0"/>
            <parameter index="1" name="mute" parameterValue="0"/>
          </component>
          <component componentGuid="46b78203-e2cb-451c-9f11-4dde855118e8" componentID="Audition.StereoPanner" id="clipPan" name="StereoPanner" powered="true">
            <parameter index="0" name="Panoramique" parameterValue="0"/>
          </component>
          <fadeIn crossFadeLinkType="linkedAsymmetric" endPoint="0" shape="0" startPoint="0" type="cosine"/>
          <fadeOut crossFadeLinkType="linkedAsymmetric" endPoint="47573" shape="19" startPoint="47573" type="log"/>
          <editParameter parameterIndex="0" slotIndex="4294967280"/>
          <editParameter parameterIndex="0" slotIndex="4294967281"/>
          <channelMap>
            <channel index="0" sourceIndex="0"/>
            <channel index="1" sourceIndex="1"/>
          </channelMap>
        </audioClip>
        <audioClip clipAutoCrossfade="true" crossFadeHeadClipID="-1" crossFadeTailClipID="-1" endPoint="1082440" fileID="1" hue="-1" id="5" lockedInTime="false" looped="false" name="jean-marie-bigard-son-coup-de-gueule-en-pleine-emission 48000 1_2" offline="false" select="false" sourceInPoint="0" sourceOutPoint="38323" startPoint="1044117" zOrder="6">
          <properties properties="{&quot;ClipRemixParameters&quot;:{&quot;type&quot;:&quot;tree::any&quot;,&quot;value&quot;:{&quot;ChromaWeight&quot;:{&quot;type&quot;:&quot;float&quot;,&quot;value&quot;:1},&quot;EditLength&quot;:{&quot;type&quot;:&quot;float&quot;,&quot;value&quot;:1},&quot;EndAtEnd&quot;:{&quot;type&quot;:&quot;bool&quot;,&quot;value&quot;:true},&quot;MaximumSlack&quot;:{&quot;type&quot;:&quot;float&quot;,&quot;value&quot;:5},&quot;MinimumLoopBeats&quot;:{&quot;type&quot;:&quot;std::uint32_t&quot;,&quot;value&quot;:8},&quot;MusicRetargetingEnabled&quot;:{&quot;type&quot;:&quot;bool&quot;,&quot;value&quot;:false},&quot;SourceClipDuration&quot;:{&quot;type&quot;:&quot;array::std::int64_t&quot;,&quot;value&quot;:[-1,1]},&quot;SourceClipRangeStart&quot;:{&quot;type&quot;:&quot;array::std::int64_t&quot;,&quot;value&quot;:[0,1]},&quot;SplitIntoSegments&quot;:{&quot;type&quot;:&quot;bool&quot;,&quot;value&quot;:false},&quot;StartAtBeginning&quot;:{&quot;type&quot;:&quot;bool&quot;,&quot;value&quot;:true},&quot;StretchExact&quot;:{&quot;type&quot;:&quot;bool&quot;,&quot;value&quot;:false},&quot;TargetDuration&quot;:{&quot;type&quot;:&quot;array::std::int64_t&quot;,&quot;value&quot;:[0,1]},&quot;TimbreWeight&quot;:{&quot;type&quot;:&quot;float&quot;,&quot;value&quot;:1}}}}"/>
          <component componentGuid="919f1c73-73d1-480e-9c75-fd99dfd54ae4" componentID="Audition.Fader" id="clipGain" name="volume" powered="true">
            <parameter index="0" name="volume" parameterValue="1">
              <parameterKeyframes enableSplines="false" readOnly="false">
                <parameterKeyframe sampleOffset="18195" select="true" type="linear" value="0.64999997615814208984375"/>
              </parameterKeyframes>
            </parameter>
            <parameter index="1" name="static gain" parameterValue="1"/>
          </component>
          <component componentGuid="cdbebe40-5999-4ed3-8cdf-ff9a13ea8314" componentID="Audition.Mute" id="clipMute" name="Mute" powered="true">
            <parameter index="0" parameterValue="0"/>
            <parameter index="1" name="mute" parameterValue="0"/>
          </component>
          <component componentGuid="877277a6-7e31-4ad7-8a9f-9dee9b76a7a9" componentID="Audition.StereoPanner" id="clipPan" name="StereoPanner" powered="true">
            <parameter index="0" name="Panoramique" parameterValue="100"/>
          </component>
          <fadeIn crossFadeLinkType="linkedAsymmetric" endPoint="0" shape="0" startPoint="0" type="cosine"/>
          <fadeOut crossFadeLinkType="linkedAsymmetric" endPoint="38323" shape="0" startPoint="38323" type="cosine"/>
          <editParameter parameterIndex="0" slotIndex="4294967281"/>
          <editParameter parameterIndex="0" slotIndex="4294967280"/>
          <channelMap>
            <channel index="0" sourceIndex="0"/>
            <channel index="1" sourceIndex="1"/>
          </channelMap>
        </audioClip>
        <audioClip clipAutoCrossfade="true" crossFadeHeadClipID="-1" crossFadeTailClipID="-1" endPoint="1227258" fileID="0" hue="-1" id="6" lockedInTime="false" looped="false" name="jean-marie-bigard-son-coup-de-gueule-en-pleine-emission 48000 1" offline="false" select="false" sourceInPoint="4420581" sourceOutPoint="4491429" startPoint="1156410" zOrder="26">
          <component componentGuid="6bc68caa-04f5-4ebf-93dc-2adcd47db576" componentID="Audition.Fader" id="clipGain" name="volume" powered="true">
            <parameter index="0" name="volume" parameterValue="1"/>
            <parameter index="1" name="static gain" parameterValue="1"/>
          </component>
          <component componentGuid="3463f7a3-838f-4f40-9576-cbd0d0a3c3e7" componentID="Audition.Mute" id="clipMute" name="Mute" powered="true">
            <parameter index="0" parameterValue="0"/>
            <parameter index="1" name="mute" parameterValue="0"/>
          </component>
          <component componentGuid="3dc2c214-4f6f-46ac-a455-5dceb4197ccc" componentID="Audition.StereoPanner" id="clipPan" name="StereoPanner" powered="true">
            <parameter index="0" name="Panoramique" parameterValue="100"/>
          </component>
          <fadeIn crossFadeLinkType="linkedAsymmetric" endPoint="0" shape="0" startPoint="0" type="cosine"/>
          <fadeOut crossFadeLinkType="linkedAsymmetric" endPoint="70848" shape="18" startPoint="70848" type="log"/>
          <editParameter parameterIndex="0" slotIndex="4294967281"/>
          <editParameter parameterIndex="0" slotIndex="4294967280"/>
          <channelMap>
            <channel index="0" sourceIndex="0"/>
            <channel index="1" sourceIndex="1"/>
          </channelMap>
        </audioClip>
        <audioClip clipAutoCrossfade="true" crossFadeHeadClipID="-1" crossFadeTailClipID="8" endPoint="1342212" fileID="0" hue="-1" id="7" lockedInTime="false" looped="false" name="jean-marie-bigard-son-coup-de-gueule-en-pleine-emission 48000 1" offline="false" select="false" sourceInPoint="912525" sourceOutPoint="985907" startPoint="1268830" zOrder="27">
          <component componentGuid="a3a1db96-8cd2-4dbc-a87e-139a58add820" componentID="Audition.Fader" id="clipGain" name="volume" powered="true">
            <parameter index="0" name="volume" parameterValue="1"/>
            <parameter index="1" name="static gain" parameterValue="1"/>
          </component>
          <component componentGuid="c6bf3390-72a1-445a-a94e-9da326e59fac" componentID="Audition.Mute" id="clipMute" name="Mute" powered="true">
            <parameter index="0" parameterValue="0"/>
            <parameter index="1" name="mute" parameterValue="0"/>
          </component>
          <component componentGuid="9087b3b4-d453-4e56-a710-5066b4c40833" componentID="Audition.StereoPanner" id="clipPan" name="StereoPanner" powered="true">
            <parameter index="0" name="Panoramique" parameterValue="100"/>
          </component>
          <fadeIn crossFadeLinkType="linkedAsymmetric" endPoint="0" shape="19" startPoint="0" type="log"/>
          <fadeOut crossFadeLinkType="linkedAsymmetric" endPoint="73382" shape="19" startPoint="70776" type="log"/>
          <editParameter parameterIndex="0" slotIndex="4294967281"/>
          <editParameter parameterIndex="0" slotIndex="4294967280"/>
          <channelMap>
            <channel index="0" sourceIndex="0"/>
            <channel index="1" sourceIndex="1"/>
          </channelMap>
        </audioClip>
        <audioClip clipAutoCrossfade="true" crossFadeHeadClipID="7" crossFadeTailClipID="-1" endPoint="1440000" fileID="0" hue="-1" id="8" lockedInTime="false" looped="false" name="jean-marie-bigard-son-coup-de-gueule-en-pleine-emission 48000 1" offline="false" select="false" sourceInPoint="3453940" sourceOutPoint="3554334" startPoint="1339606" zOrder="28">
          <component componentGuid="c06d60f0-09a4-416c-b03b-9899c59e6248" componentID="Audition.Fader" id="clipGain" name="volume" powered="true">
            <parameter index="0" name="volume" parameterValue="3.055965900421142578125">
              <parameterKeyframes enableSplines="false" readOnly="false">
                <parameterKeyframe sampleOffset="3509517" select="false" type="linear" value="0.64999997615814208984375"/>
                <parameterKeyframe sampleOffset="3512606" select="true" type="linear" value="0.905813872814178466796875"/>
              </parameterKeyframes>
            </parameter>
            <parameter index="1" name="static gain" parameterValue="1"/>
          </component>
          <component componentGuid="f1cc6ca4-dba2-468c-94f9-185edfcfbdfb" componentID="Audition.Mute" id="clipMute" name="Mute" powered="true">
            <parameter index="0" parameterValue="0"/>
            <parameter index="1" name="mute" parameterValue="0"/>
          </component>
          <component componentGuid="543d9579-1d96-489f-b16f-00f9bca438c4" componentID="Audition.StereoPanner" id="clipPan" name="StereoPanner" powered="true">
            <parameter index="0" name="Panoramique" parameterValue="100"/>
          </component>
          <fadeIn crossFadeLinkType="linkedAsymmetric" endPoint="2606" shape="18" startPoint="0" type="log"/>
          <fadeOut crossFadeLinkType="linkedAsymmetric" endPoint="100394" shape="18" startPoint="100394" type="log"/>
          <editParameter parameterIndex="0" slotIndex="4294967281"/>
          <editParameter parameterIndex="0" slotIndex="4294967280"/>
          <channelMap>
            <channel index="0" sourceIndex="0"/>
            <channel index="1" sourceIndex="1"/>
          </channelMap>
        </audioClip>
        <audioClip clipAutoCrossfade="true" crossFadeHeadClipID="-1" crossFadeTailClipID="-1" endPoint="1504693" fileID="0" hue="-1" id="9" lockedInTime="false" looped="false" name="jean-marie-bigard-son-coup-de-gueule-en-pleine-emission 48000 1" offline="false" select="false" sourceInPoint="3554334" sourceOutPoint="3606995" startPoint="1452032" zOrder="29">
          <component componentGuid="df36cd8f-2a24-45b3-95de-03f3910b13ef" componentID="Audition.Fader" id="clipGain" name="volume" powered="true">
            <parameter index="0" name="volume" parameterValue="1"/>
            <parameter index="1" name="static gain" parameterValue="1"/>
          </component>
          <component componentGuid="83d18155-c7a6-4fb6-88c6-ecd462648a6f" componentID="Audition.Mute" id="clipMute" name="Mute" powered="true">
            <parameter index="0" parameterValue="0"/>
            <parameter index="1" name="mute" parameterValue="0"/>
          </component>
          <component componentGuid="2c083990-e6db-4b70-8259-98d07e0f76df" componentID="Audition.StereoPanner" id="clipPan" name="StereoPanner" powered="true">
            <parameter index="0" name="Panoramique" parameterValue="100"/>
          </component>
          <fadeIn crossFadeLinkType="linkedAsymmetric" endPoint="0" shape="19" startPoint="0" type="log"/>
          <fadeOut crossFadeLinkType="linkedAsymmetric" endPoint="52661" shape="18" startPoint="52661" type="log"/>
          <editParameter parameterIndex="0" slotIndex="4294967281"/>
          <editParameter parameterIndex="0" slotIndex="4294967280"/>
          <channelMap>
            <channel index="0" sourceIndex="0"/>
            <channel index="1" sourceIndex="1"/>
          </channelMap>
        </audioClip>
        <audioClip clipAutoCrossfade="true" crossFadeHeadClipID="-1" crossFadeTailClipID="-1" endPoint="1680000" fileID="0" hue="-1" id="10" lockedInTime="false" looped="false" name="jean-marie-bigard-son-coup-de-gueule-en-pleine-emission 48000 1" offline="false" select="false" sourceInPoint="3648195" sourceOutPoint="3807281" startPoint="1520914" zOrder="30">
          <component componentGuid="53e42290-0931-44be-b48d-d99ebd1a37fd" componentID="Audition.Fader" id="clipGain" name="volume" powered="true">
            <parameter index="0" name="volume" parameterValue="1"/>
            <parameter index="1" name="static gain" parameterValue="1"/>
          </component>
          <component componentGuid="7140eecc-db20-4f81-9339-66c0e7309561" componentID="Audition.Mute" id="clipMute" name="Mute" powered="true">
            <parameter index="0" parameterValue="0"/>
            <parameter index="1" name="mute" parameterValue="0"/>
          </component>
          <component componentGuid="22f5c862-e704-4b48-ac6c-c2fb81657e23" componentID="Audition.StereoPanner" id="clipPan" name="StereoPanner" powered="true">
            <parameter index="0" name="Panoramique" parameterValue="100"/>
          </component>
          <fadeIn crossFadeLinkType="linkedAsymmetric" endPoint="0" shape="0" startPoint="0" type="cosine"/>
          <fadeOut crossFadeLinkType="linkedAsymmetric" endPoint="159086" shape="18" startPoint="159086" type="log"/>
          <editParameter parameterIndex="0" slotIndex="4294967281"/>
          <editParameter parameterIndex="0" slotIndex="4294967280"/>
          <channelMap>
            <channel index="0" sourceIndex="0"/>
            <channel index="1" sourceIndex="1"/>
          </channelMap>
        </audioClip>
        <audioClip clipAutoCrossfade="true" crossFadeHeadClipID="-1" crossFadeTailClipID="-1" endPoint="1714385" fileID="0" hue="-1" id="11" lockedInTime="false" looped="false" name="jean-marie-bigard-son-coup-de-gueule-en-pleine-emission 48000 1" offline="false" select="false" sourceInPoint="3586946" sourceOutPoint="3606995" startPoint="1694336" zOrder="31">
          <component componentGuid="f00dfa16-20a8-4b42-a808-8ce74120c8ca" componentID="Audition.Fader" id="clipGain" name="volume" powered="true">
            <parameter index="0" name="volume" parameterValue="5.62341403961181640625"/>
            <parameter index="1" name="static gain" parameterValue="1"/>
          </component>
          <component componentGuid="08d367b4-6672-4439-8a08-146edc38a379" componentID="Audition.Mute" id="clipMute" name="Mute" powered="true">
            <parameter index="0" parameterValue="0"/>
            <parameter index="1" name="mute" parameterValue="0"/>
          </component>
          <component componentGuid="0a1e7356-bb3a-4ee2-af07-c0f39f3324e0" componentID="Audition.StereoPanner" id="clipPan" name="StereoPanner" powered="true">
            <parameter index="0" name="Panoramique" parameterValue="100"/>
          </component>
          <fadeIn crossFadeLinkType="linkedAsymmetric" endPoint="0" shape="0" startPoint="0" type="cosine"/>
          <fadeOut crossFadeLinkType="linkedAsymmetric" endPoint="20049" shape="18" startPoint="20049" type="log"/>
          <editParameter parameterIndex="0" slotIndex="4294967281"/>
          <editParameter parameterIndex="0" slotIndex="4294967280"/>
          <channelMap>
            <channel index="0" sourceIndex="0"/>
            <channel index="1" sourceIndex="1"/>
          </channelMap>
        </audioClip>
        <audioClip clipAutoCrossfade="true" crossFadeHeadClipID="-1" crossFadeTailClipID="-1" endPoint="1766929" fileID="0" hue="-1" id="12" lockedInTime="false" looped="false" name="jean-marie-bigard-son-coup-de-gueule-en-pleine-emission 48000 1" offline="false" select="false" sourceInPoint="4612693" sourceOutPoint="4651306" startPoint="1728316" zOrder="33">
          <component componentGuid="33b18fa7-4081-42cd-b649-5edfb7512a5a" componentID="Audition.Fader" id="clipGain" name="volume" powered="true">
            <parameter index="0" name="volume" parameterValue="1.90384781360626220703125"/>
            <parameter index="1" name="static gain" parameterValue="1"/>
          </component>
          <component componentGuid="33af16c8-c863-4028-80c5-a0ca41f2eb6a" componentID="Audition.Mute" id="clipMute" name="Mute" powered="true">
            <parameter index="0" parameterValue="0"/>
            <parameter index="1" name="mute" parameterValue="0"/>
          </component>
          <component componentGuid="fa3c543d-fdc6-4530-a15f-5c44af6ef772" componentID="Audition.StereoPanner" id="clipPan" name="StereoPanner" powered="true">
            <parameter index="0" name="Panoramique" parameterValue="100"/>
          </component>
          <fadeIn crossFadeLinkType="linkedAsymmetric" endPoint="0" shape="18" startPoint="0" type="log"/>
          <fadeOut crossFadeLinkType="linkedAsymmetric" endPoint="38613" shape="0" startPoint="38613" type="cosine"/>
          <editParameter parameterIndex="0" slotIndex="4294967281"/>
          <editParameter parameterIndex="0" slotIndex="4294967280"/>
          <channelMap>
            <channel index="0" sourceIndex="0"/>
            <channel index="1" sourceIndex="1"/>
          </channelMap>
        </audioClip>
        <audioClip clipAutoCrossfade="true" crossFadeHeadClipID="-1" crossFadeTailClipID="-1" endPoint="1835594" fileID="0" hue="-1" id="13" lockedInTime="false" looped="false" name="jean-marie-bigard-son-coup-de-gueule-en-pleine-emission 48000 1" offline="false" select="false" sourceInPoint="4502194" sourceOutPoint="4546985" startPoint="1790803" zOrder="34">
          <component componentGuid="3aba6b4b-60b9-4508-bd7e-4add3449181e" componentID="Audition.Fader" id="clipGain" name="volume" powered="true">
            <parameter index="0" name="volume" parameterValue="1"/>
            <parameter index="1" name="static gain" parameterValue="1"/>
          </component>
          <component componentGuid="211e074a-6d1d-42fe-85b4-25af468d647c" componentID="Audition.Mute" id="clipMute" name="Mute" powered="true">
            <parameter index="0" parameterValue="0"/>
            <parameter index="1" name="mute" parameterValue="0"/>
          </component>
          <component componentGuid="41577a25-e5fd-4019-a8a9-13f1e8210282" componentID="Audition.StereoPanner" id="clipPan" name="StereoPanner" powered="true">
            <parameter index="0" name="Panoramique" parameterValue="100"/>
          </component>
          <fadeIn crossFadeLinkType="linkedAsymmetric" endPoint="0" shape="0" startPoint="0" type="cosine"/>
          <fadeOut crossFadeLinkType="linkedAsymmetric" endPoint="44791" shape="0" startPoint="44791" type="cosine"/>
          <editParameter parameterIndex="0" slotIndex="4294967281"/>
          <editParameter parameterIndex="0" slotIndex="4294967280"/>
          <channelMap>
            <channel index="0" sourceIndex="0"/>
            <channel index="1" sourceIndex="1"/>
          </channelMap>
        </audioClip>
        <audioClip clipAutoCrossfade="true" crossFadeHeadClipID="-1" crossFadeTailClipID="-1" endPoint="1901302" fileID="0" hue="-1" id="14" lockedInTime="false" looped="false" name="jean-marie-bigard-son-coup-de-gueule-en-pleine-emission 48000 1" offline="false" select="false" sourceInPoint="4546985" sourceOutPoint="4612693" startPoint="1835594" zOrder="40">
          <component componentGuid="5eceff05-0ba4-4407-b486-910b266bc172" componentID="Audition.Fader" id="clipGain" name="volume" powered="true">
            <parameter index="0" name="volume" parameterValue="1"/>
            <parameter index="1" name="static gain" parameterValue="1"/>
          </component>
          <component componentGuid="7ea2dfd9-fdd3-4fcc-ac4e-3c7f08019beb" componentID="Audition.Mute" id="clipMute" name="Mute" powered="true">
            <parameter index="0" parameterValue="0"/>
            <parameter index="1" name="mute" parameterValue="0"/>
          </component>
          <component componentGuid="4b820a75-0349-443a-9fb1-6836a44a99d4" componentID="Audition.StereoPanner" id="clipPan" name="StereoPanner" powered="true">
            <parameter index="0" name="Panoramique" parameterValue="100"/>
          </component>
          <fadeIn crossFadeLinkType="linkedAsymmetric" endPoint="0" shape="0" startPoint="0" type="cosine"/>
          <fadeOut crossFadeLinkType="linkedAsymmetric" endPoint="65708" shape="0" startPoint="65708" type="cosine"/>
          <editParameter parameterIndex="0" slotIndex="4294967281"/>
          <editParameter parameterIndex="0" slotIndex="4294967280"/>
          <channelMap>
            <channel index="0" sourceIndex="0"/>
            <channel index="1" sourceIndex="1"/>
          </channelMap>
        </audioClip>
        <audioClip clipAutoCrossfade="true" crossFadeHeadClipID="-1" crossFadeTailClipID="-1" endPoint="1940049" fileID="0" hue="-1" id="15" lockedInTime="false" looped="false" name="jean-marie-bigard-son-coup-de-gueule-en-pleine-emission 48000 1" offline="false" select="false" sourceInPoint="3586946" sourceOutPoint="3606995" startPoint="1920000" zOrder="44">
          <component componentGuid="575e8d66-859f-4d1d-a69c-d7b63922de78" componentID="Audition.Fader" id="clipGain" name="volume" powered="true">
            <parameter index="0" name="volume" parameterValue="5.62341403961181640625"/>
            <parameter index="1" name="static gain" parameterValue="1"/>
          </component>
          <component componentGuid="42b8fd19-7526-4f13-a7d8-7f8c5551b495" componentID="Audition.Mute" id="clipMute" name="Mute" powered="true">
            <parameter index="0" parameterValue="0"/>
            <parameter index="1" name="mute" parameterValue="0"/>
          </component>
          <component componentGuid="b42ec988-086c-4a70-ae84-e55639b40906" componentID="Audition.StereoPanner" id="clipPan" name="StereoPanner" powered="true">
            <parameter index="0" name="Panoramique" parameterValue="100"/>
          </component>
          <fadeIn crossFadeLinkType="linkedAsymmetric" endPoint="0" shape="0" startPoint="0" type="cosine"/>
          <fadeOut crossFadeLinkType="linkedAsymmetric" endPoint="20049" shape="18" startPoint="20049" type="log"/>
          <editParameter parameterIndex="0" slotIndex="4294967281"/>
          <editParameter parameterIndex="0" slotIndex="4294967280"/>
          <channelMap>
            <channel index="0" sourceIndex="0"/>
            <channel index="1" sourceIndex="1"/>
          </channelMap>
        </audioClip>
        <audioClip clipAutoCrossfade="true" crossFadeHeadClipID="-1" crossFadeTailClipID="-1" endPoint="1978662" fileID="3" hue="-1" id="16" lockedInTime="false" looped="false" name="jean-marie-bigard-son-coup-de-gueule-en-pleine-emission 48000 1_3" offline="false" select="false" sourceInPoint="0" sourceOutPoint="38613" startPoint="1940049" zOrder="45">
          <properties properties="{&quot;ClipRemixParameters&quot;:{&quot;type&quot;:&quot;tree::any&quot;,&quot;value&quot;:{&quot;ChromaWeight&quot;:{&quot;type&quot;:&quot;float&quot;,&quot;value&quot;:1},&quot;EditLength&quot;:{&quot;type&quot;:&quot;float&quot;,&quot;value&quot;:1},&quot;EndAtEnd&quot;:{&quot;type&quot;:&quot;bool&quot;,&quot;value&quot;:true},&quot;MaximumSlack&quot;:{&quot;type&quot;:&quot;float&quot;,&quot;value&quot;:5},&quot;MinimumLoopBeats&quot;:{&quot;type&quot;:&quot;std::uint32_t&quot;,&quot;value&quot;:8},&quot;MusicRetargetingEnabled&quot;:{&quot;type&quot;:&quot;bool&quot;,&quot;value&quot;:false},&quot;SourceClipDuration&quot;:{&quot;type&quot;:&quot;array::std::int64_t&quot;,&quot;value&quot;:[-1,1]},&quot;SourceClipRangeStart&quot;:{&quot;type&quot;:&quot;array::std::int64_t&quot;,&quot;value&quot;:[0,1]},&quot;SplitIntoSegments&quot;:{&quot;type&quot;:&quot;bool&quot;,&quot;value&quot;:false},&quot;StartAtBeginning&quot;:{&quot;type&quot;:&quot;bool&quot;,&quot;value&quot;:true},&quot;StretchExact&quot;:{&quot;type&quot;:&quot;bool&quot;,&quot;value&quot;:false},&quot;TargetDuration&quot;:{&quot;type&quot;:&quot;array::std::int64_t&quot;,&quot;value&quot;:[0,1]},&quot;TimbreWeight&quot;:{&quot;type&quot;:&quot;float&quot;,&quot;value&quot;:1}}}}"/>
          <component componentGuid="ae257d4a-9ae9-40f6-a7e0-d1cce1fc111e" componentID="Audition.Fader" id="clipGain" name="volume" powered="true">
            <parameter index="0" name="volume" parameterValue="4.72165966033935546875"/>
            <parameter index="1" name="static gain" parameterValue="1"/>
          </component>
          <component componentGuid="9711dae6-62d7-4a29-9504-818c23ce9e72" componentID="Audition.Mute" id="clipMute" name="Mute" powered="true">
            <parameter index="0" parameterValue="0"/>
            <parameter index="1" name="mute" parameterValue="0"/>
          </component>
          <component componentGuid="bec29229-a014-4906-9eae-a6d15532f38c" componentID="Audition.StereoPanner" id="clipPan" name="StereoPanner" powered="true">
            <parameter index="0" name="Panoramique" parameterValue="100"/>
          </component>
          <fadeIn crossFadeLinkType="linkedAsymmetric" endPoint="0" shape="0" startPoint="0" type="cosine"/>
          <fadeOut crossFadeLinkType="linkedAsymmetric" endPoint="38613" shape="0" startPoint="38613" type="cosine"/>
          <editParameter parameterIndex="0" slotIndex="4294967281"/>
          <editParameter parameterIndex="0" slotIndex="4294967280"/>
          <channelMap>
            <channel index="0" sourceIndex="0"/>
            <channel index="1" sourceIndex="1"/>
          </channelMap>
        </audioClip>
        <audioClip clipAutoCrossfade="true" crossFadeHeadClipID="-1" crossFadeTailClipID="-1" endPoint="2383191" fileID="0" hue="-1" id="17" lockedInTime="false" looped="false" name="jean-marie-bigard-son-coup-de-gueule-en-pleine-emission 48000 1" offline="false" select="false" sourceInPoint="4770234" sourceOutPoint="5166520" startPoint="1986905" zOrder="46">
          <component componentGuid="be7b0e6e-9ade-4b22-92ef-e5cc7c3057bc" componentID="Audition.Fader" id="clipGain" name="volume" powered="true">
            <parameter index="0" name="volume" parameterValue="5.62341403961181640625">
              <parameterKeyframes enableSplines="false" readOnly="false">
                <parameterKeyframe sampleOffset="5159452" select="false" type="linear" value="0.64999997615814208984375"/>
                <parameterKeyframe sampleOffset="5173353" select="false" type="linear" value="1"/>
              </parameterKeyframes>
            </parameter>
            <parameter index="1" name="static gain" parameterValue="1"/>
          </component>
          <component componentGuid="00d7ed37-af75-4049-9ace-c9e97ad6bfd3" componentID="Audition.Mute" id="clipMute" name="Mute" powered="true">
            <parameter index="0" parameterValue="0"/>
            <parameter index="1" name="mute" parameterValue="0"/>
          </component>
          <component componentGuid="980c2205-7970-4acf-ba4f-6b569bdba808" componentID="Audition.StereoPanner" id="clipPan" name="StereoPanner" powered="true">
            <parameter index="0" name="Panoramique" parameterValue="100"/>
          </component>
          <fadeIn crossFadeLinkType="linkedAsymmetric" endPoint="0" shape="0" startPoint="0" type="cosine"/>
          <fadeOut crossFadeLinkType="linkedAsymmetric" endPoint="396286" shape="0" startPoint="396286" type="cosine"/>
          <editParameter parameterIndex="0" slotIndex="4294967281"/>
          <editParameter parameterIndex="0" slotIndex="4294967280"/>
          <channelMap>
            <channel index="0" sourceIndex="0"/>
            <channel index="1" sourceIndex="1"/>
          </channelMap>
        </audioClip>
        <audioClip clipAutoCrossfade="true" crossFadeHeadClipID="-1" crossFadeTailClipID="-1" endPoint="2400000" fileID="4" hue="-1" id="18" lockedInTime="false" looped="false" name="jean-marie-bigard-son-coup-de-gueule-en-pleine-emission 48000 1_4" offline="false" select="false" sourceInPoint="0" sourceOutPoint="16809" startPoint="2383191" zOrder="46">
          <properties properties="{&quot;ClipRemixParameters&quot;:{&quot;type&quot;:&quot;tree::any&quot;,&quot;value&quot;:{&quot;ChromaWeight&quot;:{&quot;type&quot;:&quot;float&quot;,&quot;value&quot;:1},&quot;EditLength&quot;:{&quot;type&quot;:&quot;float&quot;,&quot;value&quot;:1},&quot;EndAtEnd&quot;:{&quot;type&quot;:&quot;bool&quot;,&quot;value&quot;:true},&quot;MaximumSlack&quot;:{&quot;type&quot;:&quot;float&quot;,&quot;value&quot;:5},&quot;MinimumLoopBeats&quot;:{&quot;type&quot;:&quot;std::uint32_t&quot;,&quot;value&quot;:8},&quot;MusicRetargetingEnabled&quot;:{&quot;type&quot;:&quot;bool&quot;,&quot;value&quot;:false},&quot;SourceClipDuration&quot;:{&quot;type&quot;:&quot;array::std::int64_t&quot;,&quot;value&quot;:[-1,1]},&quot;SourceClipRangeStart&quot;:{&quot;type&quot;:&quot;array::std::int64_t&quot;,&quot;value&quot;:[0,1]},&quot;SplitIntoSegments&quot;:{&quot;type&quot;:&quot;bool&quot;,&quot;value&quot;:false},&quot;StartAtBeginning&quot;:{&quot;type&quot;:&quot;bool&quot;,&quot;value&quot;:true},&quot;StretchExact&quot;:{&quot;type&quot;:&quot;bool&quot;,&quot;value&quot;:false},&quot;TargetDuration&quot;:{&quot;type&quot;:&quot;array::std::int64_t&quot;,&quot;value&quot;:[0,1]},&quot;TimbreWeight&quot;:{&quot;type&quot;:&quot;float&quot;,&quot;value&quot;:1}}}}"/>
          <component componentGuid="2f57a3fa-e4c4-425d-8e5f-e062f2735669" componentID="Audition.Fader" id="clipGain" name="volume" powered="true">
            <parameter index="0" name="volume" parameterValue="5.62341403961181640625">
              <parameterKeyframes enableSplines="false" readOnly="false">
                <parameterKeyframe sampleOffset="-7068" select="false" type="linear" value="0.64999997615814208984375"/>
                <parameterKeyframe sampleOffset="6833" select="false" type="linear" value="1"/>
              </parameterKeyframes>
            </parameter>
            <parameter index="1" name="static gain" parameterValue="1"/>
          </component>
          <component componentGuid="1c7c24e9-831b-4f38-881b-d3a1ddd15502" componentID="Audition.Mute" id="clipMute" name="Mute" powered="true">
            <parameter index="0" parameterValue="0"/>
            <parameter index="1" name="mute" parameterValue="0"/>
          </component>
          <component componentGuid="484369d0-26c0-4256-9e29-b227fd7d0bda" componentID="Audition.StereoPanner" id="clipPan" name="StereoPanner" powered="true">
            <parameter index="0" name="Panoramique" parameterValue="100"/>
          </component>
          <fadeIn crossFadeLinkType="linkedAsymmetric" endPoint="0" shape="0" startPoint="0" type="cosine"/>
          <fadeOut crossFadeLinkType="linkedAsymmetric" endPoint="16809" shape="0" startPoint="16809" type="cosine"/>
          <editParameter parameterIndex="0" slotIndex="4294967281"/>
          <editParameter parameterIndex="0" slotIndex="4294967280"/>
          <channelMap>
            <channel index="0" sourceIndex="0"/>
            <channel index="1" sourceIndex="1"/>
          </channelMap>
        </audioClip>
        <audioClip clipAutoCrossfade="true" crossFadeHeadClipID="-1" crossFadeTailClipID="-1" endPoint="2449759" fileID="0" hue="-1" id="19" lockedInTime="false" looped="false" name="jean-marie-bigard-son-coup-de-gueule-en-pleine-emission 48000 1" offline="false" select="false" sourceInPoint="3586946" sourceOutPoint="3606995" startPoint="2429710" zOrder="47">
          <component componentGuid="4ac56616-0efe-46ab-8a11-87eb70c6d692" componentID="Audition.Fader" id="clipGain" name="volume" powered="true">
            <parameter index="0" name="volume" parameterValue="5.62341403961181640625"/>
            <parameter index="1" name="static gain" parameterValue="1"/>
          </component>
          <component componentGuid="da0cd1a8-9624-42ce-b468-ac5fa14dab37" componentID="Audition.Mute" id="clipMute" name="Mute" powered="true">
            <parameter index="0" parameterValue="0"/>
            <parameter index="1" name="mute" parameterValue="0"/>
          </component>
          <component componentGuid="834d42da-1f25-48c9-ac43-71b90301aad8" componentID="Audition.StereoPanner" id="clipPan" name="StereoPanner" powered="true">
            <parameter index="0" name="Panoramique" parameterValue="100"/>
          </component>
          <fadeIn crossFadeLinkType="linkedAsymmetric" endPoint="0" shape="0" startPoint="0" type="cosine"/>
          <fadeOut crossFadeLinkType="linkedAsymmetric" endPoint="20049" shape="18" startPoint="20049" type="log"/>
          <editParameter parameterIndex="0" slotIndex="4294967281"/>
          <editParameter parameterIndex="0" slotIndex="4294967280"/>
          <channelMap>
            <channel index="0" sourceIndex="0"/>
            <channel index="1" sourceIndex="1"/>
          </channelMap>
        </audioClip>
        <audioClip clipAutoCrossfade="true" crossFadeHeadClipID="-1" crossFadeTailClipID="-1" endPoint="2484197" fileID="4" hue="-1" id="20" lockedInTime="false" looped="false" name="jean-marie-bigard-son-coup-de-gueule-en-pleine-emission 48000 1_4" offline="false" select="false" sourceInPoint="0" sourceOutPoint="16809" startPoint="2467388" zOrder="48">
          <properties properties="{&quot;ClipRemixParameters&quot;:{&quot;type&quot;:&quot;tree::any&quot;,&quot;value&quot;:{&quot;ChromaWeight&quot;:{&quot;type&quot;:&quot;float&quot;,&quot;value&quot;:1},&quot;EditLength&quot;:{&quot;type&quot;:&quot;float&quot;,&quot;value&quot;:1},&quot;EndAtEnd&quot;:{&quot;type&quot;:&quot;bool&quot;,&quot;value&quot;:true},&quot;MaximumSlack&quot;:{&quot;type&quot;:&quot;float&quot;,&quot;value&quot;:5},&quot;MinimumLoopBeats&quot;:{&quot;type&quot;:&quot;std::uint32_t&quot;,&quot;value&quot;:8},&quot;MusicRetargetingEnabled&quot;:{&quot;type&quot;:&quot;bool&quot;,&quot;value&quot;:false},&quot;SourceClipDuration&quot;:{&quot;type&quot;:&quot;array::std::int64_t&quot;,&quot;value&quot;:[-1,1]},&quot;SourceClipRangeStart&quot;:{&quot;type&quot;:&quot;array::std::int64_t&quot;,&quot;value&quot;:[0,1]},&quot;SplitIntoSegments&quot;:{&quot;type&quot;:&quot;bool&quot;,&quot;value&quot;:false},&quot;StartAtBeginning&quot;:{&quot;type&quot;:&quot;bool&quot;,&quot;value&quot;:true},&quot;StretchExact&quot;:{&quot;type&quot;:&quot;bool&quot;,&quot;value&quot;:false},&quot;TargetDuration&quot;:{&quot;type&quot;:&quot;array::std::int64_t&quot;,&quot;value&quot;:[0,1]},&quot;TimbreWeight&quot;:{&quot;type&quot;:&quot;float&quot;,&quot;value&quot;:1}}}}"/>
          <component componentGuid="23d6a2e2-6b3e-44ce-945c-71ecc04f91eb" componentID="Audition.Fader" id="clipGain" name="volume" powered="true">
            <parameter index="0" name="volume" parameterValue="5.62341403961181640625">
              <parameterKeyframes enableSplines="false" readOnly="false">
                <parameterKeyframe sampleOffset="-7068" select="false" type="linear" value="0.64999997615814208984375"/>
                <parameterKeyframe sampleOffset="6833" select="false" type="linear" value="1"/>
              </parameterKeyframes>
            </parameter>
            <parameter index="1" name="static gain" parameterValue="1"/>
          </component>
          <component componentGuid="35754ade-aeee-4d4d-9121-07b719bdeaef" componentID="Audition.Mute" id="clipMute" name="Mute" powered="true">
            <parameter index="0" parameterValue="0"/>
            <parameter index="1" name="mute" parameterValue="0"/>
          </component>
          <component componentGuid="25bb58ac-b49b-411f-8ef6-97502eacdcc5" componentID="Audition.StereoPanner" id="clipPan" name="StereoPanner" powered="true">
            <parameter index="0" name="Panoramique" parameterValue="100"/>
          </component>
          <fadeIn crossFadeLinkType="linkedAsymmetric" endPoint="0" shape="0" startPoint="0" type="cosine"/>
          <fadeOut crossFadeLinkType="linkedAsymmetric" endPoint="16809" shape="19" startPoint="16809" type="log"/>
          <editParameter parameterIndex="0" slotIndex="4294967281"/>
          <editParameter parameterIndex="0" slotIndex="4294967280"/>
          <channelMap>
            <channel index="0" sourceIndex="0"/>
            <channel index="1" sourceIndex="1"/>
          </channelMap>
        </audioClip>
        <audioClip clipAutoCrossfade="true" crossFadeHeadClipID="-1" crossFadeTailClipID="-1" endPoint="2512809" fileID="4" hue="-1" id="21" lockedInTime="false" looped="false" name="jean-marie-bigard-son-coup-de-gueule-en-pleine-emission 48000 1_4" offline="false" select="true" sourceInPoint="0" sourceOutPoint="16809" startPoint="2496000" zOrder="49">
          <properties properties="{&quot;ClipRemixParameters&quot;:{&quot;type&quot;:&quot;tree::any&quot;,&quot;value&quot;:{&quot;ChromaWeight&quot;:{&quot;type&quot;:&quot;float&quot;,&quot;value&quot;:1},&quot;EditLength&quot;:{&quot;type&quot;:&quot;float&quot;,&quot;value&quot;:1},&quot;EndAtEnd&quot;:{&quot;type&quot;:&quot;bool&quot;,&quot;value&quot;:true},&quot;MaximumSlack&quot;:{&quot;type&quot;:&quot;float&quot;,&quot;value&quot;:5},&quot;MinimumLoopBeats&quot;:{&quot;type&quot;:&quot;std::uint32_t&quot;,&quot;value&quot;:8},&quot;MusicRetargetingEnabled&quot;:{&quot;type&quot;:&quot;bool&quot;,&quot;value&quot;:false},&quot;SourceClipDuration&quot;:{&quot;type&quot;:&quot;array::std::int64_t&quot;,&quot;value&quot;:[-1,1]},&quot;SourceClipRangeStart&quot;:{&quot;type&quot;:&quot;array::std::int64_t&quot;,&quot;value&quot;:[0,1]},&quot;SplitIntoSegments&quot;:{&quot;type&quot;:&quot;bool&quot;,&quot;value&quot;:false},&quot;StartAtBeginning&quot;:{&quot;type&quot;:&quot;bool&quot;,&quot;value&quot;:true},&quot;StretchExact&quot;:{&quot;type&quot;:&quot;bool&quot;,&quot;value&quot;:false},&quot;TargetDuration&quot;:{&quot;type&quot;:&quot;array::std::int64_t&quot;,&quot;value&quot;:[0,1]},&quot;TimbreWeight&quot;:{&quot;type&quot;:&quot;float&quot;,&quot;value&quot;:1}}}}"/>
          <component componentGuid="12197826-0744-4e98-8531-33a8089109c6" componentID="Audition.Fader" id="clipGain" name="volume" powered="true">
            <parameter index="0" name="volume" parameterValue="5.62341403961181640625">
              <parameterKeyframes enableSplines="false" readOnly="false">
                <parameterKeyframe sampleOffset="-7068" select="false" type="linear" value="0.64999997615814208984375"/>
                <parameterKeyframe sampleOffset="6833" select="false" type="linear" value="1"/>
              </parameterKeyframes>
            </parameter>
            <parameter index="1" name="static gain" parameterValue="1"/>
          </component>
          <component componentGuid="0641db7a-67c1-41de-83a6-f66b64a4a037" componentID="Audition.Mute" id="clipMute" name="Mute" powered="true">
            <parameter index="0" parameterValue="0"/>
            <parameter index="1" name="mute" parameterValue="0"/>
          </component>
          <component componentGuid="82e413bb-2a2d-4f32-bc07-5d72f87983d2" componentID="Audition.StereoPanner" id="clipPan" name="StereoPanner" powered="true">
            <parameter index="0" name="Panoramique" parameterValue="100"/>
          </component>
          <fadeIn crossFadeLinkType="linkedAsymmetric" endPoint="0" shape="0" startPoint="0" type="cosine"/>
          <fadeOut crossFadeLinkType="linkedAsymmetric" endPoint="16809" shape="0" startPoint="16809" type="cosine"/>
          <editParameter parameterIndex="0" slotIndex="4294967281"/>
          <editParameter parameterIndex="0" slotIndex="4294967280"/>
          <channelMap>
            <channel index="0" sourceIndex="0"/>
            <channel index="1" sourceIndex="1"/>
          </channelMap>
        </audioClip>
        <audioClip clipAutoCrossfade="true" crossFadeHeadClipID="-1" crossFadeTailClipID="-1" endPoint="4145021" fileID="0" hue="-1" id="22" lockedInTime="false" looped="false" name="jean-marie-bigard-son-coup-de-gueule-en-pleine-emission 48000 1" offline="false" select="false" sourceInPoint="3606995" sourceOutPoint="3648195" startPoint="4103821" zOrder="12">
          <component componentGuid="696e05de-5897-43f5-8435-234b1cdaa677" componentID="Audition.Fader" id="clipGain" name="volume" powered="true">
            <parameter index="0" name="volume" parameterValue="1"/>
            <parameter index="1" name="static gain" parameterValue="1"/>
          </component>
          <component componentGuid="0c319978-95f6-402d-b549-eadef4b7c8b1" componentID="Audition.Mute" id="clipMute" name="Mute" powered="true">
            <parameter index="0" parameterValue="0"/>
            <parameter index="1" name="mute" parameterValue="0"/>
          </component>
          <component componentGuid="41e6a1db-3e81-4eb8-aacd-68844b9991ba" componentID="Audition.StereoPanner" id="clipPan" name="StereoPanner" powered="true">
            <parameter index="0" name="Panoramique" parameterValue="100"/>
          </component>
          <fadeIn crossFadeLinkType="linkedAsymmetric" endPoint="0" shape="0" startPoint="0" type="cosine"/>
          <fadeOut crossFadeLinkType="linkedAsymmetric" endPoint="41200" shape="18" startPoint="41200" type="log"/>
          <editParameter parameterIndex="0" slotIndex="4294967281"/>
          <editParameter parameterIndex="0" slotIndex="4294967280"/>
          <channelMap>
            <channel index="0" sourceIndex="0"/>
            <channel index="1" sourceIndex="1"/>
          </channelMap>
        </audioClip>
        <audioClip clipAutoCrossfade="true" crossFadeHeadClipID="-1" crossFadeTailClipID="-1" endPoint="4886062" fileID="0" hue="-1" id="23" lockedInTime="false" looped="false" name="jean-marie-bigard-son-coup-de-gueule-en-pleine-emission 48000 1" offline="false" select="false" sourceInPoint="3807281" sourceOutPoint="4389236" startPoint="4304107" zOrder="13">
          <component componentGuid="da06e6a7-d8e1-4293-a0f7-ed75f243cbe2" componentID="Audition.Fader" id="clipGain" name="volume" powered="true">
            <parameter index="0" name="volume" parameterValue="1"/>
            <parameter index="1" name="static gain" parameterValue="1"/>
          </component>
          <component componentGuid="cef0327b-a3ad-45c7-b769-9a13ffa87e63" componentID="Audition.Mute" id="clipMute" name="Mute" powered="true">
            <parameter index="0" parameterValue="0"/>
            <parameter index="1" name="mute" parameterValue="0"/>
          </component>
          <component componentGuid="d7b9b26e-5462-426a-8b03-d792f7c17920" componentID="Audition.StereoPanner" id="clipPan" name="StereoPanner" powered="true">
            <parameter index="0" name="Panoramique" parameterValue="100"/>
          </component>
          <fadeIn crossFadeLinkType="linkedAsymmetric" endPoint="0" shape="0" startPoint="0" type="cosine"/>
          <fadeOut crossFadeLinkType="linkedAsymmetric" endPoint="581955" shape="18" startPoint="581955" type="log"/>
          <editParameter parameterIndex="0" slotIndex="4294967281"/>
          <editParameter parameterIndex="0" slotIndex="4294967280"/>
          <channelMap>
            <channel index="0" sourceIndex="0"/>
            <channel index="1" sourceIndex="1"/>
          </channelMap>
        </audioClip>
        <audioClip clipAutoCrossfade="true" crossFadeHeadClipID="-1" crossFadeTailClipID="-1" endPoint="4896827" fileID="0" hue="-1" id="24" lockedInTime="false" looped="false" name="jean-marie-bigard-son-coup-de-gueule-en-pleine-emission 48000 1" offline="false" select="false" sourceInPoint="4491429" sourceOutPoint="4502194" startPoint="4886062" zOrder="2">
          <component componentGuid="d2fcbece-c259-4797-8ea7-391bd7ccd6c0" componentID="Audition.Fader" id="clipGain" name="volume" powered="true">
            <parameter index="0" name="volume" parameterValue="1"/>
            <parameter index="1" name="static gain" parameterValue="1"/>
          </component>
          <component componentGuid="1245e799-4d03-421a-bd3f-a556d3f98bc4" componentID="Audition.Mute" id="clipMute" name="Mute" powered="true">
            <parameter index="0" parameterValue="0"/>
            <parameter index="1" name="mute" parameterValue="0"/>
          </component>
          <component componentGuid="da1ffd56-bfb1-44e1-838d-6154630054e4" componentID="Audition.StereoPanner" id="clipPan" name="StereoPanner" powered="true">
            <parameter index="0" name="Panoramique" parameterValue="100"/>
          </component>
          <fadeIn crossFadeLinkType="linkedAsymmetric" endPoint="0" shape="19" startPoint="0" type="log"/>
          <fadeOut crossFadeLinkType="linkedAsymmetric" endPoint="10765" shape="0" startPoint="10765" type="cosine"/>
          <editParameter parameterIndex="0" slotIndex="4294967281"/>
          <editParameter parameterIndex="0" slotIndex="4294967280"/>
          <channelMap>
            <channel index="0" sourceIndex="0"/>
            <channel index="1" sourceIndex="1"/>
          </channelMap>
        </audioClip>
        <audioClip clipAutoCrossfade="true" crossFadeHeadClipID="-1" crossFadeTailClipID="-1" endPoint="5164867" fileID="0" hue="-1" id="25" lockedInTime="false" looped="false" name="jean-marie-bigard-son-coup-de-gueule-en-pleine-emission 48000 1" offline="false" select="false" sourceInPoint="4651306" sourceOutPoint="4770234" startPoint="5045939" zOrder="2">
          <component componentGuid="279e261b-8620-4976-bc07-665e339feb13" componentID="Audition.Fader" id="clipGain" name="volume" powered="true">
            <parameter index="0" name="volume" parameterValue="1">
              <parameterKeyframes enableSplines="false" readOnly="false">
                <parameterKeyframe sampleOffset="5159452" select="false" type="linear" value="0.64999997615814208984375"/>
                <parameterKeyframe sampleOffset="5173353" select="false" type="linear" value="1"/>
              </parameterKeyframes>
            </parameter>
            <parameter index="1" name="static gain" parameterValue="1"/>
          </component>
          <component componentGuid="bb2ec757-291b-45ec-8b6c-9fd042fd4706" componentID="Audition.Mute" id="clipMute" name="Mute" powered="true">
            <parameter index="0" parameterValue="0"/>
            <parameter index="1" name="mute" parameterValue="0"/>
          </component>
          <component componentGuid="716d2efc-c39a-4dfc-a060-c0d118382401" componentID="Audition.StereoPanner" id="clipPan" name="StereoPanner" powered="true">
            <parameter index="0" name="Panoramique" parameterValue="100"/>
          </component>
          <fadeIn crossFadeLinkType="linkedAsymmetric" endPoint="0" shape="0" startPoint="0" type="cosine"/>
          <fadeOut crossFadeLinkType="linkedAsymmetric" endPoint="118928" shape="0" startPoint="118928" type="cosine"/>
          <editParameter parameterIndex="0" slotIndex="4294967281"/>
          <editParameter parameterIndex="0" slotIndex="4294967280"/>
          <channelMap>
            <channel index="0" sourceIndex="0"/>
            <channel index="1" sourceIndex="1"/>
          </channelMap>
        </audioClip>
      </audioTrack>
      <audioTrack automationLaneOpenState="false" id="10001" index="2" select="false" visible="true">
        <trackParameters trackHeight="74" trackHue="160" trackMinimized="false">
          <name>Bigard</name>
        </trackParameters>
        <trackAudioParameters audioChannelType="stereo" automationMode="1" monitoring="false" recordArmed="false" solo="false" soloSafe="false">
          <trackOutput outputID="10000" type="trackID"/>
          <trackInput inputID="1"/>
          <component componentGuid="450deb69-952a-4076-871b-4abf975c9302" componentID="Audition.Fader" id="trackFader" name="volume" powered="true">
            <parameter index="0" name="volume" parameterValue="1"/>
            <parameter index="1" name="static gain" parameterValue="1"/>
          </component>
          <component componentGuid="6a2f9f5f-5fff-42e8-9fde-6159375fe09d" componentID="Audition.Mute" id="trackMute" name="Mute" powered="true">
            <parameter index="0" parameterValue="0"/>
            <parameter index="1" name="mute" parameterValue="1"/>
          </component>
          <component componentGuid="0d2773c7-137f-4d09-8788-381a98824627" componentID="Audition.StereoPanner" id="trackPan" name="StereoPanner" powered="true">
            <parameter index="0" name="Panoramique" parameterValue="0"/>
          </component>
          <component componentGuid="079e13ba-9795-4e3b-ac65-8ca5c1876f7f" componentID="Audition.EQ" id="trackEQ" name="EQ" powered="false">
            <parameter index="0" name="Fréquence papillon grave" parameterValue="0.000834028352983295917510986328125"/>
            <parameter index="1" name="Gain papillon grave" parameterValue="0.5"/>
            <parameter index="2" name="Fréquence papillon aigu" parameterValue="0.74979150295257568359375"/>
            <parameter index="3" name="Gain papillon aigu" parameterValue="0.5"/>
            <parameter index="4" name="Bande d’égaliseur 1 – Fréquence centrale" parameterValue="0.00125104258768260478973388671875"/>
            <parameter index="5" name="Bande d’égaliseur 1 – Facteur Q" parameterValue="0.000199989997781813144683837890625"/>
            <parameter index="6" name="Bande d’égaliseur 1 – Gain" parameterValue="0.5"/>
            <parameter index="7" name="Bande d’égaliseur 1 – Activation" parameterValue="1"/>
            <parameter index="8" name="Bande d’égaliseur 2 – Fréquence centrale" parameterValue="0.0075062550604343414306640625"/>
            <parameter index="9" name="Bande d’égaliseur 2 – Facteur Q" parameterValue="0.000199989997781813144683837890625"/>
            <parameter index="10" name="Bande d’égaliseur 2 – Gain" parameterValue="0.5"/>
            <parameter index="11" name="Bande d’égaliseur 2 – Activation" parameterValue="1"/>
            <parameter index="12" name="Bande d’égaliseur 3 – Fréquence centrale" parameterValue="0.0325271077454090118408203125"/>
            <parameter index="13" name="Bande d’égaliseur 3 – Facteur Q" parameterValue="0.000199989997781813144683837890625"/>
            <parameter index="14" name="Bande d’égaliseur 3 – Gain" parameterValue="0.5"/>
            <parameter index="15" name="Bande d’égaliseur 3 – Activation" parameterValue="1"/>
            <parameter index="16" name="Bande d’égaliseur 4 – Fréquence centrale" parameterValue="0.13261051476001739501953125"/>
            <parameter index="17" name="Bande d’égaliseur 4 – Facteur Q" parameterValue="0.000199989997781813144683837890625"/>
            <parameter index="18" name="Bande d’égaliseur 4 – Gain" parameterValue="0.5"/>
            <parameter index="19" name="Bande d’égaliseur 4 – Activation" parameterValue="1"/>
            <parameter index="20" name="Bande d’égaliseur 5 – Fréquence centrale" parameterValue="0.532944142818450927734375"/>
            <parameter index="21" name="Bande d’égaliseur 5 – Facteur Q" parameterValue="0.000199989997781813144683837890625"/>
            <parameter index="22" name="Bande d’égaliseur 5 – Gain" parameterValue="0.5"/>
            <parameter index="23" name="Bande d’égaliseur 5 – Activation" parameterValue="1"/>
            <parameter index="24" name="Gain principal" parameterValue="0.666666686534881591796875"/>
            <parameter index="25" name="Q constant" parameterValue="1"/>
            <parameter index="26" name="Ordre de filtre coupe-bas" parameterValue="0"/>
            <parameter index="27" name="Ordre de filtre coupe-haut" parameterValue="0"/>
            <parameter index="28" name="Mode ultra-silencieux" parameterValue="0"/>
            <parameter index="29" name="Filtre low-shelf activé" parameterValue="1"/>
            <parameter index="30" name="Filtre high-shelf activé" parameterValue="1"/>
            <parameter index="31" name="Taux d’échantillonnage d’origine" parameterValue="0.25"/>
            <parameter index="32" name="Bande d’égaliseur 1 – Largeur de bande" parameterValue="0.002499990165233612060546875"/>
            <parameter index="33" name="Bande d’égaliseur 2 – Largeur de bande" parameterValue="0.0099999904632568359375"/>
            <parameter index="34" name="Bande d’égaliseur 3 – Largeur de bande" parameterValue="0.0399999916553497314453125"/>
            <parameter index="35" name="Bande d’égaliseur 4 – Largeur de bande" parameterValue="0.15999998152256011962890625"/>
            <parameter index="36" name="Bande d’égaliseur 5 – Largeur de bande" parameterValue="0.63999998569488525390625"/>
            <parameter index="37" name="Filtre passe-haut – Activation" parameterValue="0"/>
            <parameter index="38" name="Fréquence coupure passe-haut" parameterValue="0"/>
            <parameter index="39" name="Pente passe-haut" parameterValue="0.4000000059604644775390625"/>
            <parameter index="40" name="Filtre passe-bas – Activation" parameterValue="0"/>
            <parameter index="41" name="Fréquence coupure passe-bas" parameterValue="0.833194315433502197265625"/>
            <parameter index="42" name="Pente passe-bas" parameterValue="0.4000000059604644775390625"/>
            <parameter index="43" name="Ignorer" parameterValue="0"/>
            <parameter index="44" name="Plage graphique basse" parameterValue="1"/>
          </component>
        </trackAudioParameters>
        <editParameter parameterIndex="0" slotIndex="4294967280"/>
        <audioClip clipAutoCrossfade="true" crossFadeHeadClipID="-1" crossFadeTailClipID="-1" endPoint="9602824" fileID="0" hue="-1" id="0" lockedInTime="false" looped="false" name="jean-marie-bigard-son-coup-de-gueule-en-pleine-emission 48000 1" offline="false" select="false" sourceInPoint="5497623" sourceOutPoint="15100447" startPoint="0" zOrder="22">
          <component componentGuid="3ff94104-c32b-4535-a070-f4f8d5777856" componentID="Audition.Fader" id="clipGain" name="volume" powered="true">
            <parameter index="0" name="volume" parameterValue="1"/>
            <parameter index="1" name="static gain" parameterValue="1"/>
          </component>
          <component componentGuid="78eb9789-80b7-4c6e-aff4-fd4d16cc9e84" componentID="Audition.Mute" id="clipMute" name="Mute" powered="true">
            <parameter index="0" parameterValue="0"/>
            <parameter index="1" name="mute" parameterValue="0"/>
          </component>
          <component componentGuid="bf45be8c-48cd-4a94-b9f7-a1833895dbb9" componentID="Audition.StereoPanner" id="clipPan" name="StereoPanner" powered="true">
            <parameter index="0" name="Panoramique" parameterValue="100"/>
          </component>
          <fadeIn crossFadeLinkType="linkedAsymmetric" endPoint="0" shape="0" startPoint="0" type="cosine"/>
          <fadeOut crossFadeLinkType="linkedAsymmetric" endPoint="9602824" shape="0" startPoint="9602824" type="cosine"/>
          <editParameter parameterIndex="0" slotIndex="4294967281"/>
          <editParameter parameterIndex="0" slotIndex="4294967280"/>
          <channelMap>
            <channel index="0" sourceIndex="0"/>
            <channel index="1" sourceIndex="1"/>
          </channelMap>
        </audioClip>
      </audioTrack>
      <audioTrack automationLaneOpenState="false" id="10002" index="3" select="false" visible="true">
        <trackParameters trackHeight="74" trackHue="267" trackMinimized="false">
          <name>Bigard</name>
        </trackParameters>
        <trackAudioParameters audioChannelType="stereo" automationMode="1" monitoring="false" recordArmed="false" solo="false" soloSafe="false">
          <trackOutput outputID="10000" type="trackID"/>
          <trackInput inputID="1"/>
          <component componentGuid="190fb678-1401-46d5-a7fc-3cfb61894253" componentID="Audition.Fader" id="trackFader" name="volume" powered="true">
            <parameter index="0" name="volume" parameterValue="1"/>
            <parameter index="1" name="static gain" parameterValue="1"/>
          </component>
          <component componentGuid="30947cbe-ea41-47b0-86c2-0a1033af23d7" componentID="Audition.Mute" id="trackMute" name="Mute" powered="true">
            <parameter index="0" parameterValue="0"/>
            <parameter index="1" name="mute" parameterValue="1"/>
          </component>
          <component componentGuid="da707a62-9829-4f31-8008-6979ff6e67e6" componentID="Audition.StereoPanner" id="trackPan" name="StereoPanner" powered="true">
            <parameter index="0" name="Panoramique" parameterValue="0"/>
          </component>
          <component componentGuid="4336e0e0-12b5-4973-9388-92d1c35ef8d5" componentID="Audition.EQ" id="trackEQ" name="EQ" powered="false">
            <parameter index="0" name="Fréquence papillon grave" parameterValue="0.000834028352983295917510986328125"/>
            <parameter index="1" name="Gain papillon grave" parameterValue="0.5"/>
            <parameter index="2" name="Fréquence papillon aigu" parameterValue="0.74979150295257568359375"/>
            <parameter index="3" name="Gain papillon aigu" parameterValue="0.5"/>
            <parameter index="4" name="Bande d’égaliseur 1 – Fréquence centrale" parameterValue="0.00125104258768260478973388671875"/>
            <parameter index="5" name="Bande d’égaliseur 1 – Facteur Q" parameterValue="0.000199989997781813144683837890625"/>
            <parameter index="6" name="Bande d’égaliseur 1 – Gain" parameterValue="0.5"/>
            <parameter index="7" name="Bande d’égaliseur 1 – Activation" parameterValue="1"/>
            <parameter index="8" name="Bande d’égaliseur 2 – Fréquence centrale" parameterValue="0.0075062550604343414306640625"/>
            <parameter index="9" name="Bande d’égaliseur 2 – Facteur Q" parameterValue="0.000199989997781813144683837890625"/>
            <parameter index="10" name="Bande d’égaliseur 2 – Gain" parameterValue="0.5"/>
            <parameter index="11" name="Bande d’égaliseur 2 – Activation" parameterValue="1"/>
            <parameter index="12" name="Bande d’égaliseur 3 – Fréquence centrale" parameterValue="0.0325271077454090118408203125"/>
            <parameter index="13" name="Bande d’égaliseur 3 – Facteur Q" parameterValue="0.000199989997781813144683837890625"/>
            <parameter index="14" name="Bande d’égaliseur 3 – Gain" parameterValue="0.5"/>
            <parameter index="15" name="Bande d’égaliseur 3 – Activation" parameterValue="1"/>
            <parameter index="16" name="Bande d’égaliseur 4 – Fréquence centrale" parameterValue="0.13261051476001739501953125"/>
            <parameter index="17" name="Bande d’égaliseur 4 – Facteur Q" parameterValue="0.000199989997781813144683837890625"/>
            <parameter index="18" name="Bande d’égaliseur 4 – Gain" parameterValue="0.5"/>
            <parameter index="19" name="Bande d’égaliseur 4 – Activation" parameterValue="1"/>
            <parameter index="20" name="Bande d’égaliseur 5 – Fréquence centrale" parameterValue="0.532944142818450927734375"/>
            <parameter index="21" name="Bande d’égaliseur 5 – Facteur Q" parameterValue="0.000199989997781813144683837890625"/>
            <parameter index="22" name="Bande d’égaliseur 5 – Gain" parameterValue="0.5"/>
            <parameter index="23" name="Bande d’égaliseur 5 – Activation" parameterValue="1"/>
            <parameter index="24" name="Gain principal" parameterValue="0.666666686534881591796875"/>
            <parameter index="25" name="Q constant" parameterValue="1"/>
            <parameter index="26" name="Ordre de filtre coupe-bas" parameterValue="0"/>
            <parameter index="27" name="Ordre de filtre coupe-haut" parameterValue="0"/>
            <parameter index="28" name="Mode ultra-silencieux" parameterValue="0"/>
            <parameter index="29" name="Filtre low-shelf activé" parameterValue="1"/>
            <parameter index="30" name="Filtre high-shelf activé" parameterValue="1"/>
            <parameter index="31" name="Taux d’échantillonnage d’origine" parameterValue="0.25"/>
            <parameter index="32" name="Bande d’égaliseur 1 – Largeur de bande" parameterValue="0.002499990165233612060546875"/>
            <parameter index="33" name="Bande d’égaliseur 2 – Largeur de bande" parameterValue="0.0099999904632568359375"/>
            <parameter index="34" name="Bande d’égaliseur 3 – Largeur de bande" parameterValue="0.0399999916553497314453125"/>
            <parameter index="35" name="Bande d’égaliseur 4 – Largeur de bande" parameterValue="0.15999998152256011962890625"/>
            <parameter index="36" name="Bande d’égaliseur 5 – Largeur de bande" parameterValue="0.63999998569488525390625"/>
            <parameter index="37" name="Filtre passe-haut – Activation" parameterValue="0"/>
            <parameter index="38" name="Fréquence coupure passe-haut" parameterValue="0"/>
            <parameter index="39" name="Pente passe-haut" parameterValue="0.4000000059604644775390625"/>
            <parameter index="40" name="Filtre passe-bas – Activation" parameterValue="0"/>
            <parameter index="41" name="Fréquence coupure passe-bas" parameterValue="0.833194315433502197265625"/>
            <parameter index="42" name="Pente passe-bas" parameterValue="0.4000000059604644775390625"/>
            <parameter index="43" name="Ignorer" parameterValue="0"/>
            <parameter index="44" name="Plage graphique basse" parameterValue="1"/>
          </component>
        </trackAudioParameters>
        <editParameter parameterIndex="0" slotIndex="4294967280"/>
        <audioClip clipAutoCrossfade="true" crossFadeHeadClipID="-1" crossFadeTailClipID="-1" endPoint="4799881" fileID="0" hue="-1" id="0" lockedInTime="false" looped="false" name="jean-marie-bigard-son-coup-de-gueule-en-pleine-emission 48000 1" offline="false" select="false" sourceInPoint="10300566" sourceOutPoint="15100447" startPoint="0" zOrder="23">
          <component componentGuid="fc9c56db-43d3-425e-a404-de11848fe76b" componentID="Audition.Fader" id="clipGain" name="volume" powered="true">
            <parameter index="0" name="volume" parameterValue="1"/>
            <parameter index="1" name="static gain" parameterValue="1"/>
          </component>
          <component componentGuid="9a37e2cd-2e0d-4415-a45a-bc7dbfdbf9a9" componentID="Audition.Mute" id="clipMute" name="Mute" powered="true">
            <parameter index="0" parameterValue="0"/>
            <parameter index="1" name="mute" parameterValue="0"/>
          </component>
          <component componentGuid="bb4601d9-6856-42ae-b9b4-add6957db2a2" componentID="Audition.StereoPanner" id="clipPan" name="StereoPanner" powered="true">
            <parameter index="0" name="Panoramique" parameterValue="0"/>
          </component>
          <fadeIn crossFadeLinkType="linkedAsymmetric" endPoint="0" shape="0" startPoint="0" type="cosine"/>
          <fadeOut crossFadeLinkType="linkedAsymmetric" endPoint="4799881" shape="18" startPoint="4799881" type="log"/>
          <editParameter parameterIndex="0" slotIndex="4294967281"/>
          <editParameter parameterIndex="0" slotIndex="4294967280"/>
          <channelMap>
            <channel index="0" sourceIndex="0"/>
            <channel index="1" sourceIndex="1"/>
          </channelMap>
        </audioClip>
      </audioTrack>
      <audioTrack automationLaneOpenState="false" id="10003" index="4" select="false" visible="true">
        <trackParameters trackHeight="74" trackHue="51" trackMinimized="false">
          <name>Bigard</name>
        </trackParameters>
        <trackAudioParameters audioChannelType="stereo" automationMode="1" monitoring="false" recordArmed="false" solo="false" soloSafe="false">
          <trackOutput outputID="10000" type="trackID"/>
          <trackInput inputID="1"/>
          <component componentGuid="43d671bd-6703-4473-9b48-86c4081b314a" componentID="Audition.Fader" id="trackFader" name="volume" powered="true">
            <parameter index="0" name="volume" parameterValue="1"/>
            <parameter index="1" name="static gain" parameterValue="1"/>
          </component>
          <component componentGuid="0b850ca6-4acb-4050-9481-06deae336860" componentID="Audition.Mute" id="trackMute" name="Mute" powered="true">
            <parameter index="0" parameterValue="0"/>
            <parameter index="1" name="mute" parameterValue="1"/>
          </component>
          <component componentGuid="47e79375-d59f-47e3-b826-52c41a605f4c" componentID="Audition.StereoPanner" id="trackPan" name="StereoPanner" powered="true">
            <parameter index="0" name="Panoramique" parameterValue="0"/>
          </component>
          <component componentGuid="f943870e-8c73-499c-9698-f5ece192f6f3" componentID="Audition.EQ" id="trackEQ" name="EQ" powered="false">
            <parameter index="0" name="Fréquence papillon grave" parameterValue="0.000834028352983295917510986328125"/>
            <parameter index="1" name="Gain papillon grave" parameterValue="0.5"/>
            <parameter index="2" name="Fréquence papillon aigu" parameterValue="0.74979150295257568359375"/>
            <parameter index="3" name="Gain papillon aigu" parameterValue="0.5"/>
            <parameter index="4" name="Bande d’égaliseur 1 – Fréquence centrale" parameterValue="0.00125104258768260478973388671875"/>
            <parameter index="5" name="Bande d’égaliseur 1 – Facteur Q" parameterValue="0.000199989997781813144683837890625"/>
            <parameter index="6" name="Bande d’égaliseur 1 – Gain" parameterValue="0.5"/>
            <parameter index="7" name="Bande d’égaliseur 1 – Activation" parameterValue="1"/>
            <parameter index="8" name="Bande d’égaliseur 2 – Fréquence centrale" parameterValue="0.0075062550604343414306640625"/>
            <parameter index="9" name="Bande d’égaliseur 2 – Facteur Q" parameterValue="0.000199989997781813144683837890625"/>
            <parameter index="10" name="Bande d’égaliseur 2 – Gain" parameterValue="0.5"/>
            <parameter index="11" name="Bande d’égaliseur 2 – Activation" parameterValue="1"/>
            <parameter index="12" name="Bande d’égaliseur 3 – Fréquence centrale" parameterValue="0.0325271077454090118408203125"/>
            <parameter index="13" name="Bande d’égaliseur 3 – Facteur Q" parameterValue="0.000199989997781813144683837890625"/>
            <parameter index="14" name="Bande d’égaliseur 3 – Gain" parameterValue="0.5"/>
            <parameter index="15" name="Bande d’égaliseur 3 – Activation" parameterValue="1"/>
            <parameter index="16" name="Bande d’égaliseur 4 – Fréquence centrale" parameterValue="0.13261051476001739501953125"/>
            <parameter index="17" name="Bande d’égaliseur 4 – Facteur Q" parameterValue="0.000199989997781813144683837890625"/>
            <parameter index="18" name="Bande d’égaliseur 4 – Gain" parameterValue="0.5"/>
            <parameter index="19" name="Bande d’égaliseur 4 – Activation" parameterValue="1"/>
            <parameter index="20" name="Bande d’égaliseur 5 – Fréquence centrale" parameterValue="0.532944142818450927734375"/>
            <parameter index="21" name="Bande d’égaliseur 5 – Facteur Q" parameterValue="0.000199989997781813144683837890625"/>
            <parameter index="22" name="Bande d’égaliseur 5 – Gain" parameterValue="0.5"/>
            <parameter index="23" name="Bande d’égaliseur 5 – Activation" parameterValue="1"/>
            <parameter index="24" name="Gain principal" parameterValue="0.666666686534881591796875"/>
            <parameter index="25" name="Q constant" parameterValue="1"/>
            <parameter index="26" name="Ordre de filtre coupe-bas" parameterValue="0"/>
            <parameter index="27" name="Ordre de filtre coupe-haut" parameterValue="0"/>
            <parameter index="28" name="Mode ultra-silencieux" parameterValue="0"/>
            <parameter index="29" name="Filtre low-shelf activé" parameterValue="1"/>
            <parameter index="30" name="Filtre high-shelf activé" parameterValue="1"/>
            <parameter index="31" name="Taux d’échantillonnage d’origine" parameterValue="0.25"/>
            <parameter index="32" name="Bande d’égaliseur 1 – Largeur de bande" parameterValue="0.002499990165233612060546875"/>
            <parameter index="33" name="Bande d’égaliseur 2 – Largeur de bande" parameterValue="0.0099999904632568359375"/>
            <parameter index="34" name="Bande d’égaliseur 3 – Largeur de bande" parameterValue="0.0399999916553497314453125"/>
            <parameter index="35" name="Bande d’égaliseur 4 – Largeur de bande" parameterValue="0.15999998152256011962890625"/>
            <parameter index="36" name="Bande d’égaliseur 5 – Largeur de bande" parameterValue="0.63999998569488525390625"/>
            <parameter index="37" name="Filtre passe-haut – Activation" parameterValue="0"/>
            <parameter index="38" name="Fréquence coupure passe-haut" parameterValue="0"/>
            <parameter index="39" name="Pente passe-haut" parameterValue="0.4000000059604644775390625"/>
            <parameter index="40" name="Filtre passe-bas – Activation" parameterValue="0"/>
            <parameter index="41" name="Fréquence coupure passe-bas" parameterValue="0.833194315433502197265625"/>
            <parameter index="42" name="Pente passe-bas" parameterValue="0.4000000059604644775390625"/>
            <parameter index="43" name="Ignorer" parameterValue="0"/>
            <parameter index="44" name="Plage graphique basse" parameterValue="1"/>
          </component>
        </trackAudioParameters>
        <editParameter parameterIndex="0" slotIndex="4294967280"/>
        <audioClip clipAutoCrossfade="true" crossFadeHeadClipID="-1" crossFadeTailClipID="-1" endPoint="2429710" fileID="0" hue="-1" id="0" lockedInTime="false" looped="false" name="jean-marie-bigard-son-coup-de-gueule-en-pleine-emission 48000 1" offline="false" select="false" sourceInPoint="1024230" sourceOutPoint="3453940" startPoint="0" zOrder="32">
          <component componentGuid="d522b102-c0f5-4c87-b7c5-35a263c5f99e" componentID="Audition.Fader" id="clipGain" name="volume" powered="true">
            <parameter index="0" name="volume" parameterValue="1"/>
            <parameter index="1" name="static gain" parameterValue="1"/>
          </component>
          <component componentGuid="7ba19f9b-3717-4083-b638-860a29b63ba2" componentID="Audition.Mute" id="clipMute" name="Mute" powered="true">
            <parameter index="0" parameterValue="0"/>
            <parameter index="1" name="mute" parameterValue="0"/>
          </component>
          <component componentGuid="4e7f9fd9-2f2a-41fd-8bb0-bbdfbccddc08" componentID="Audition.StereoPanner" id="clipPan" name="StereoPanner" powered="true">
            <parameter index="0" name="Panoramique" parameterValue="100"/>
          </component>
          <fadeIn crossFadeLinkType="linkedAsymmetric" endPoint="0" shape="19" startPoint="0" type="log"/>
          <fadeOut crossFadeLinkType="linkedAsymmetric" endPoint="2429710" shape="18" startPoint="2429710" type="log"/>
          <editParameter parameterIndex="0" slotIndex="4294967281"/>
          <editParameter parameterIndex="0" slotIndex="4294967280"/>
          <channelMap>
            <channel index="0" sourceIndex="0"/>
            <channel index="1" sourceIndex="1"/>
          </channelMap>
        </audioClip>
      </audioTrack>
      <audioTrack automationLaneOpenState="false" id="10004" index="5" select="false" visible="true">
        <trackParameters trackHeight="74" trackHue="182" trackMinimized="false">
          <name>Piste 4</name>
        </trackParameters>
        <trackAudioParameters audioChannelType="stereo" automationMode="1" monitoring="false" recordArmed="false" solo="false" soloSafe="false">
          <trackOutput outputID="10000" type="trackID"/>
          <trackInput inputID="1"/>
          <component componentGuid="1d29ef87-4379-48c7-8157-214d293531ed" componentID="Audition.Fader" id="trackFader" name="volume" powered="true">
            <parameter index="0" name="volume" parameterValue="1"/>
            <parameter index="1" name="static gain" parameterValue="1"/>
          </component>
          <component componentGuid="4f4b7d84-60b1-4d74-84df-560308fcd337" componentID="Audition.Mute" id="trackMute" name="Mute" powered="true">
            <parameter index="0" parameterValue="0"/>
            <parameter index="1" name="mute" parameterValue="0"/>
          </component>
          <component componentGuid="bf7985a4-0cd8-47ea-ad31-404f576996f7" componentID="Audition.StereoPanner" id="trackPan" name="StereoPanner" powered="true">
            <parameter index="0" name="Panoramique" parameterValue="0"/>
          </component>
          <component componentGuid="ca29ed27-3c07-41e3-b349-af9d0bfc3903" componentID="Audition.EQ" id="trackEQ" name="EQ" powered="false">
            <parameter index="0" name="Fréquence papillon grave" parameterValue="0.000834028352983295917510986328125"/>
            <parameter index="1" name="Gain papillon grave" parameterValue="0.5"/>
            <parameter index="2" name="Fréquence papillon aigu" parameterValue="0.74979150295257568359375"/>
            <parameter index="3" name="Gain papillon aigu" parameterValue="0.5"/>
            <parameter index="4" name="Bande d’égaliseur 1 – Fréquence centrale" parameterValue="0.00125104258768260478973388671875"/>
            <parameter index="5" name="Bande d’égaliseur 1 – Facteur Q" parameterValue="0.000199989997781813144683837890625"/>
            <parameter index="6" name="Bande d’égaliseur 1 – Gain" parameterValue="0.5"/>
            <parameter index="7" name="Bande d’égaliseur 1 – Activation" parameterValue="1"/>
            <parameter index="8" name="Bande d’égaliseur 2 – Fréquence centrale" parameterValue="0.0075062550604343414306640625"/>
            <parameter index="9" name="Bande d’égaliseur 2 – Facteur Q" parameterValue="0.000199989997781813144683837890625"/>
            <parameter index="10" name="Bande d’égaliseur 2 – Gain" parameterValue="0.5"/>
            <parameter index="11" name="Bande d’égaliseur 2 – Activation" parameterValue="1"/>
            <parameter index="12" name="Bande d’égaliseur 3 – Fréquence centrale" parameterValue="0.0325271077454090118408203125"/>
            <parameter index="13" name="Bande d’égaliseur 3 – Facteur Q" parameterValue="0.000199989997781813144683837890625"/>
            <parameter index="14" name="Bande d’égaliseur 3 – Gain" parameterValue="0.5"/>
            <parameter index="15" name="Bande d’égaliseur 3 – Activation" parameterValue="1"/>
            <parameter index="16" name="Bande d’égaliseur 4 – Fréquence centrale" parameterValue="0.13261051476001739501953125"/>
            <parameter index="17" name="Bande d’égaliseur 4 – Facteur Q" parameterValue="0.000199989997781813144683837890625"/>
            <parameter index="18" name="Bande d’égaliseur 4 – Gain" parameterValue="0.5"/>
            <parameter index="19" name="Bande d’égaliseur 4 – Activation" parameterValue="1"/>
            <parameter index="20" name="Bande d’égaliseur 5 – Fréquence centrale" parameterValue="0.532944142818450927734375"/>
            <parameter index="21" name="Bande d’égaliseur 5 – Facteur Q" parameterValue="0.000199989997781813144683837890625"/>
            <parameter index="22" name="Bande d’égaliseur 5 – Gain" parameterValue="0.5"/>
            <parameter index="23" name="Bande d’égaliseur 5 – Activation" parameterValue="1"/>
            <parameter index="24" name="Gain principal" parameterValue="0.666666686534881591796875"/>
            <parameter index="25" name="Q constant" parameterValue="1"/>
            <parameter index="26" name="Ordre de filtre coupe-bas" parameterValue="0"/>
            <parameter index="27" name="Ordre de filtre coupe-haut" parameterValue="0"/>
            <parameter index="28" name="Mode ultra-silencieux" parameterValue="0"/>
            <parameter index="29" name="Filtre low-shelf activé" parameterValue="1"/>
            <parameter index="30" name="Filtre high-shelf activé" parameterValue="1"/>
            <parameter index="31" name="Taux d’échantillonnage d’origine" parameterValue="0.25"/>
            <parameter index="32" name="Bande d’égaliseur 1 – Largeur de bande" parameterValue="0.002499990165233612060546875"/>
            <parameter index="33" name="Bande d’égaliseur 2 – Largeur de bande" parameterValue="0.0099999904632568359375"/>
            <parameter index="34" name="Bande d’égaliseur 3 – Largeur de bande" parameterValue="0.0399999916553497314453125"/>
            <parameter index="35" name="Bande d’égaliseur 4 – Largeur de bande" parameterValue="0.15999998152256011962890625"/>
            <parameter index="36" name="Bande d’égaliseur 5 – Largeur de bande" parameterValue="0.63999998569488525390625"/>
            <parameter index="37" name="Filtre passe-haut – Activation" parameterValue="0"/>
            <parameter index="38" name="Fréquence coupure passe-haut" parameterValue="0"/>
            <parameter index="39" name="Pente passe-haut" parameterValue="0.4000000059604644775390625"/>
            <parameter index="40" name="Filtre passe-bas – Activation" parameterValue="0"/>
            <parameter index="41" name="Fréquence coupure passe-bas" parameterValue="0.833194315433502197265625"/>
            <parameter index="42" name="Pente passe-bas" parameterValue="0.4000000059604644775390625"/>
            <parameter index="43" name="Ignorer" parameterValue="0"/>
            <parameter index="44" name="Plage graphique basse" parameterValue="1"/>
          </component>
        </trackAudioParameters>
        <editParameter parameterIndex="0" slotIndex="4294967280"/>
      </audioTrack>
      <audioTrack automationLaneOpenState="false" id="10005" index="6" select="false" visible="true">
        <trackParameters trackHeight="74" trackHue="294" trackMinimized="false">
          <name>Piste 5</name>
        </trackParameters>
        <trackAudioParameters audioChannelType="stereo" automationMode="1" monitoring="false" recordArmed="false" solo="false" soloSafe="false">
          <trackOutput outputID="10000" type="trackID"/>
          <trackInput inputID="1"/>
          <component componentGuid="094826fc-02f3-4694-be77-16061cafe152" componentID="Audition.Fader" id="trackFader" name="volume" powered="true">
            <parameter index="0" name="volume" parameterValue="1"/>
            <parameter index="1" name="static gain" parameterValue="1"/>
          </component>
          <component componentGuid="c0afb0b5-7830-4c77-95bb-1dea6669ff1e" componentID="Audition.Mute" id="trackMute" name="Mute" powered="true">
            <parameter index="0" parameterValue="0"/>
            <parameter index="1" name="mute" parameterValue="1"/>
          </component>
          <component componentGuid="61a8bd12-cbd9-41ed-8989-3079db3bb82b" componentID="Audition.StereoPanner" id="trackPan" name="StereoPanner" powered="true">
            <parameter index="0" name="Panoramique" parameterValue="0"/>
          </component>
          <component componentGuid="2606ceb1-6780-4da6-9360-93fb79c4a070" componentID="Audition.EQ" id="trackEQ" name="EQ" powered="false">
            <parameter index="0" name="Fréquence papillon grave" parameterValue="0.000834028352983295917510986328125"/>
            <parameter index="1" name="Gain papillon grave" parameterValue="0.5"/>
            <parameter index="2" name="Fréquence papillon aigu" parameterValue="0.74979150295257568359375"/>
            <parameter index="3" name="Gain papillon aigu" parameterValue="0.5"/>
            <parameter index="4" name="Bande d’égaliseur 1 – Fréquence centrale" parameterValue="0.00125104258768260478973388671875"/>
            <parameter index="5" name="Bande d’égaliseur 1 – Facteur Q" parameterValue="0.000199989997781813144683837890625"/>
            <parameter index="6" name="Bande d’égaliseur 1 – Gain" parameterValue="0.5"/>
            <parameter index="7" name="Bande d’égaliseur 1 – Activation" parameterValue="1"/>
            <parameter index="8" name="Bande d’égaliseur 2 – Fréquence centrale" parameterValue="0.0075062550604343414306640625"/>
            <parameter index="9" name="Bande d’égaliseur 2 – Facteur Q" parameterValue="0.000199989997781813144683837890625"/>
            <parameter index="10" name="Bande d’égaliseur 2 – Gain" parameterValue="0.5"/>
            <parameter index="11" name="Bande d’égaliseur 2 – Activation" parameterValue="1"/>
            <parameter index="12" name="Bande d’égaliseur 3 – Fréquence centrale" parameterValue="0.0325271077454090118408203125"/>
            <parameter index="13" name="Bande d’égaliseur 3 – Facteur Q" parameterValue="0.000199989997781813144683837890625"/>
            <parameter index="14" name="Bande d’égaliseur 3 – Gain" parameterValue="0.5"/>
            <parameter index="15" name="Bande d’égaliseur 3 – Activation" parameterValue="1"/>
            <parameter index="16" name="Bande d’égaliseur 4 – Fréquence centrale" parameterValue="0.13261051476001739501953125"/>
            <parameter index="17" name="Bande d’égaliseur 4 – Facteur Q" parameterValue="0.000199989997781813144683837890625"/>
            <parameter index="18" name="Bande d’égaliseur 4 – Gain" parameterValue="0.5"/>
            <parameter index="19" name="Bande d’égaliseur 4 – Activation" parameterValue="1"/>
            <parameter index="20" name="Bande d’égaliseur 5 – Fréquence centrale" parameterValue="0.532944142818450927734375"/>
            <parameter index="21" name="Bande d’égaliseur 5 – Facteur Q" parameterValue="0.000199989997781813144683837890625"/>
            <parameter index="22" name="Bande d’égaliseur 5 – Gain" parameterValue="0.5"/>
            <parameter index="23" name="Bande d’égaliseur 5 – Activation" parameterValue="1"/>
            <parameter index="24" name="Gain principal" parameterValue="0.666666686534881591796875"/>
            <parameter index="25" name="Q constant" parameterValue="1"/>
            <parameter index="26" name="Ordre de filtre coupe-bas" parameterValue="0"/>
            <parameter index="27" name="Ordre de filtre coupe-haut" parameterValue="0"/>
            <parameter index="28" name="Mode ultra-silencieux" parameterValue="0"/>
            <parameter index="29" name="Filtre low-shelf activé" parameterValue="1"/>
            <parameter index="30" name="Filtre high-shelf activé" parameterValue="1"/>
            <parameter index="31" name="Taux d’échantillonnage d’origine" parameterValue="0.25"/>
            <parameter index="32" name="Bande d’égaliseur 1 – Largeur de bande" parameterValue="0.002499990165233612060546875"/>
            <parameter index="33" name="Bande d’égaliseur 2 – Largeur de bande" parameterValue="0.0099999904632568359375"/>
            <parameter index="34" name="Bande d’égaliseur 3 – Largeur de bande" parameterValue="0.0399999916553497314453125"/>
            <parameter index="35" name="Bande d’égaliseur 4 – Largeur de bande" parameterValue="0.15999998152256011962890625"/>
            <parameter index="36" name="Bande d’égaliseur 5 – Largeur de bande" parameterValue="0.63999998569488525390625"/>
            <parameter index="37" name="Filtre passe-haut – Activation" parameterValue="0"/>
            <parameter index="38" name="Fréquence coupure passe-haut" parameterValue="0"/>
            <parameter index="39" name="Pente passe-haut" parameterValue="0.4000000059604644775390625"/>
            <parameter index="40" name="Filtre passe-bas – Activation" parameterValue="0"/>
            <parameter index="41" name="Fréquence coupure passe-bas" parameterValue="0.833194315433502197265625"/>
            <parameter index="42" name="Pente passe-bas" parameterValue="0.4000000059604644775390625"/>
            <parameter index="43" name="Ignorer" parameterValue="0"/>
            <parameter index="44" name="Plage graphique basse" parameterValue="1"/>
          </component>
        </trackAudioParameters>
        <editParameter parameterIndex="0" slotIndex="4294967280"/>
      </audioTrack>
      <audioTrack automationLaneOpenState="false" id="10006" index="7" select="false" visible="true">
        <trackParameters trackHeight="74" trackHue="92" trackMinimized="false">
          <name>Piste 6</name>
        </trackParameters>
        <trackAudioParameters audioChannelType="stereo" automationMode="1" monitoring="false" recordArmed="false" solo="false" soloSafe="false">
          <trackOutput outputID="10000" type="trackID"/>
          <trackInput inputID="1"/>
          <component componentGuid="bd3f8375-78ae-4966-b9b7-40aa28f3a1aa" componentID="Audition.Fader" id="trackFader" name="volume" powered="true">
            <parameter index="0" name="volume" parameterValue="1"/>
            <parameter index="1" name="static gain" parameterValue="1"/>
          </component>
          <component componentGuid="d133852a-80b0-48af-b2ab-52582bf3e7a4" componentID="Audition.Mute" id="trackMute" name="Mute" powered="true">
            <parameter index="0" parameterValue="0"/>
            <parameter index="1" name="mute" parameterValue="1"/>
          </component>
          <component componentGuid="e3dd8f8e-8160-40b4-aee3-aba70c0fa81c" componentID="Audition.StereoPanner" id="trackPan" name="StereoPanner" powered="true">
            <parameter index="0" name="Panoramique" parameterValue="0"/>
          </component>
          <component componentGuid="39044e78-b320-4880-a44c-546b5b7a3c06" componentID="Audition.EQ" id="trackEQ" name="EQ" powered="false">
            <parameter index="0" name="Fréquence papillon grave" parameterValue="0.000834028352983295917510986328125"/>
            <parameter index="1" name="Gain papillon grave" parameterValue="0.5"/>
            <parameter index="2" name="Fréquence papillon aigu" parameterValue="0.74979150295257568359375"/>
            <parameter index="3" name="Gain papillon aigu" parameterValue="0.5"/>
            <parameter index="4" name="Bande d’égaliseur 1 – Fréquence centrale" parameterValue="0.00125104258768260478973388671875"/>
            <parameter index="5" name="Bande d’égaliseur 1 – Facteur Q" parameterValue="0.000199989997781813144683837890625"/>
            <parameter index="6" name="Bande d’égaliseur 1 – Gain" parameterValue="0.5"/>
            <parameter index="7" name="Bande d’égaliseur 1 – Activation" parameterValue="1"/>
            <parameter index="8" name="Bande d’égaliseur 2 – Fréquence centrale" parameterValue="0.0075062550604343414306640625"/>
            <parameter index="9" name="Bande d’égaliseur 2 – Facteur Q" parameterValue="0.000199989997781813144683837890625"/>
            <parameter index="10" name="Bande d’égaliseur 2 – Gain" parameterValue="0.5"/>
            <parameter index="11" name="Bande d’égaliseur 2 – Activation" parameterValue="1"/>
            <parameter index="12" name="Bande d’égaliseur 3 – Fréquence centrale" parameterValue="0.0325271077454090118408203125"/>
            <parameter index="13" name="Bande d’égaliseur 3 – Facteur Q" parameterValue="0.000199989997781813144683837890625"/>
            <parameter index="14" name="Bande d’égaliseur 3 – Gain" parameterValue="0.5"/>
            <parameter index="15" name="Bande d’égaliseur 3 – Activation" parameterValue="1"/>
            <parameter index="16" name="Bande d’égaliseur 4 – Fréquence centrale" parameterValue="0.13261051476001739501953125"/>
            <parameter index="17" name="Bande d’égaliseur 4 – Facteur Q" parameterValue="0.000199989997781813144683837890625"/>
            <parameter index="18" name="Bande d’égaliseur 4 – Gain" parameterValue="0.5"/>
            <parameter index="19" name="Bande d’égaliseur 4 – Activation" parameterValue="1"/>
            <parameter index="20" name="Bande d’égaliseur 5 – Fréquence centrale" parameterValue="0.532944142818450927734375"/>
            <parameter index="21" name="Bande d’égaliseur 5 – Facteur Q" parameterValue="0.000199989997781813144683837890625"/>
            <parameter index="22" name="Bande d’égaliseur 5 – Gain" parameterValue="0.5"/>
            <parameter index="23" name="Bande d’égaliseur 5 – Activation" parameterValue="1"/>
            <parameter index="24" name="Gain principal" parameterValue="0.666666686534881591796875"/>
            <parameter index="25" name="Q constant" parameterValue="1"/>
            <parameter index="26" name="Ordre de filtre coupe-bas" parameterValue="0"/>
            <parameter index="27" name="Ordre de filtre coupe-haut" parameterValue="0"/>
            <parameter index="28" name="Mode ultra-silencieux" parameterValue="0"/>
            <parameter index="29" name="Filtre low-shelf activé" parameterValue="1"/>
            <parameter index="30" name="Filtre high-shelf activé" parameterValue="1"/>
            <parameter index="31" name="Taux d’échantillonnage d’origine" parameterValue="0.25"/>
            <parameter index="32" name="Bande d’égaliseur 1 – Largeur de bande" parameterValue="0.002499990165233612060546875"/>
            <parameter index="33" name="Bande d’égaliseur 2 – Largeur de bande" parameterValue="0.0099999904632568359375"/>
            <parameter index="34" name="Bande d’égaliseur 3 – Largeur de bande" parameterValue="0.0399999916553497314453125"/>
            <parameter index="35" name="Bande d’égaliseur 4 – Largeur de bande" parameterValue="0.15999998152256011962890625"/>
            <parameter index="36" name="Bande d’égaliseur 5 – Largeur de bande" parameterValue="0.63999998569488525390625"/>
            <parameter index="37" name="Filtre passe-haut – Activation" parameterValue="0"/>
            <parameter index="38" name="Fréquence coupure passe-haut" parameterValue="0"/>
            <parameter index="39" name="Pente passe-haut" parameterValue="0.4000000059604644775390625"/>
            <parameter index="40" name="Filtre passe-bas – Activation" parameterValue="0"/>
            <parameter index="41" name="Fréquence coupure passe-bas" parameterValue="0.833194315433502197265625"/>
            <parameter index="42" name="Pente passe-bas" parameterValue="0.4000000059604644775390625"/>
            <parameter index="43" name="Ignorer" parameterValue="0"/>
            <parameter index="44" name="Plage graphique basse" parameterValue="1"/>
          </component>
        </trackAudioParameters>
        <editParameter parameterIndex="0" slotIndex="4294967280"/>
      </audioTrack>
      <audioTrack automationLaneOpenState="false" id="10008" index="8" select="false" visible="true">
        <trackParameters trackHeight="74" trackHue="326" trackMinimized="false">
          <name>Piste 8</name>
        </trackParameters>
        <trackAudioParameters audioChannelType="stereo" automationMode="1" monitoring="false" recordArmed="false" solo="false" soloSafe="false">
          <trackOutput outputID="10000" type="trackID"/>
          <trackInput inputID="1"/>
          <component componentGuid="c36f66e8-6da0-4467-9917-0391adf614cf" componentID="Audition.Fader" id="trackFader" name="volume" powered="true">
            <parameter index="0" name="volume" parameterValue="1"/>
            <parameter index="1" name="static gain" parameterValue="1"/>
          </component>
          <component componentGuid="a5b5c05c-b3f9-43f5-832c-628fb1cbc126" componentID="Audition.Mute" id="trackMute" name="Mute" powered="true">
            <parameter index="0" parameterValue="0"/>
            <parameter index="1" name="mute" parameterValue="1"/>
          </component>
          <component componentGuid="38d3418b-5b14-4bf3-ba4e-4b1b4b497cf9" componentID="Audition.StereoPanner" id="trackPan" name="StereoPanner" powered="true">
            <parameter index="0" name="Panoramique" parameterValue="0"/>
          </component>
          <component componentGuid="4e63f3e2-f330-4454-9fa0-f5bf2a35bfc3" componentID="Audition.EQ" id="trackEQ" name="EQ" powered="false">
            <parameter index="0" name="Fréquence papillon grave" parameterValue="0.000834028352983295917510986328125"/>
            <parameter index="1" name="Gain papillon grave" parameterValue="0.5"/>
            <parameter index="2" name="Fréquence papillon aigu" parameterValue="0.74979150295257568359375"/>
            <parameter index="3" name="Gain papillon aigu" parameterValue="0.5"/>
            <parameter index="4" name="Bande d’égaliseur 1 – Fréquence centrale" parameterValue="0.00125104258768260478973388671875"/>
            <parameter index="5" name="Bande d’égaliseur 1 – Facteur Q" parameterValue="0.000199989997781813144683837890625"/>
            <parameter index="6" name="Bande d’égaliseur 1 – Gain" parameterValue="0.5"/>
            <parameter index="7" name="Bande d’égaliseur 1 – Activation" parameterValue="1"/>
            <parameter index="8" name="Bande d’égaliseur 2 – Fréquence centrale" parameterValue="0.0075062550604343414306640625"/>
            <parameter index="9" name="Bande d’égaliseur 2 – Facteur Q" parameterValue="0.000199989997781813144683837890625"/>
            <parameter index="10" name="Bande d’égaliseur 2 – Gain" parameterValue="0.5"/>
            <parameter index="11" name="Bande d’égaliseur 2 – Activation" parameterValue="1"/>
            <parameter index="12" name="Bande d’égaliseur 3 – Fréquence centrale" parameterValue="0.0325271077454090118408203125"/>
            <parameter index="13" name="Bande d’égaliseur 3 – Facteur Q" parameterValue="0.000199989997781813144683837890625"/>
            <parameter index="14" name="Bande d’égaliseur 3 – Gain" parameterValue="0.5"/>
            <parameter index="15" name="Bande d’égaliseur 3 – Activation" parameterValue="1"/>
            <parameter index="16" name="Bande d’égaliseur 4 – Fréquence centrale" parameterValue="0.13261051476001739501953125"/>
            <parameter index="17" name="Bande d’égaliseur 4 – Facteur Q" parameterValue="0.000199989997781813144683837890625"/>
            <parameter index="18" name="Bande d’égaliseur 4 – Gain" parameterValue="0.5"/>
            <parameter index="19" name="Bande d’égaliseur 4 – Activation" parameterValue="1"/>
            <parameter index="20" name="Bande d’égaliseur 5 – Fréquence centrale" parameterValue="0.532944142818450927734375"/>
            <parameter index="21" name="Bande d’égaliseur 5 – Facteur Q" parameterValue="0.000199989997781813144683837890625"/>
            <parameter index="22" name="Bande d’égaliseur 5 – Gain" parameterValue="0.5"/>
            <parameter index="23" name="Bande d’égaliseur 5 – Activation" parameterValue="1"/>
            <parameter index="24" name="Gain principal" parameterValue="0.666666686534881591796875"/>
            <parameter index="25" name="Q constant" parameterValue="1"/>
            <parameter index="26" name="Ordre de filtre coupe-bas" parameterValue="0"/>
            <parameter index="27" name="Ordre de filtre coupe-haut" parameterValue="0"/>
            <parameter index="28" name="Mode ultra-silencieux" parameterValue="0"/>
            <parameter index="29" name="Filtre low-shelf activé" parameterValue="1"/>
            <parameter index="30" name="Filtre high-shelf activé" parameterValue="1"/>
            <parameter index="31" name="Taux d’échantillonnage d’origine" parameterValue="0.25"/>
            <parameter index="32" name="Bande d’égaliseur 1 – Largeur de bande" parameterValue="0.002499990165233612060546875"/>
            <parameter index="33" name="Bande d’égaliseur 2 – Largeur de bande" parameterValue="0.0099999904632568359375"/>
            <parameter index="34" name="Bande d’égaliseur 3 – Largeur de bande" parameterValue="0.0399999916553497314453125"/>
            <parameter index="35" name="Bande d’égaliseur 4 – Largeur de bande" parameterValue="0.15999998152256011962890625"/>
            <parameter index="36" name="Bande d’égaliseur 5 – Largeur de bande" parameterValue="0.63999998569488525390625"/>
            <parameter index="37" name="Filtre passe-haut – Activation" parameterValue="0"/>
            <parameter index="38" name="Fréquence coupure passe-haut" parameterValue="0"/>
            <parameter index="39" name="Pente passe-haut" parameterValue="0.4000000059604644775390625"/>
            <parameter index="40" name="Filtre passe-bas – Activation" parameterValue="0"/>
            <parameter index="41" name="Fréquence coupure passe-bas" parameterValue="0.833194315433502197265625"/>
            <parameter index="42" name="Pente passe-bas" parameterValue="0.4000000059604644775390625"/>
            <parameter index="43" name="Ignorer" parameterValue="0"/>
            <parameter index="44" name="Plage graphique basse" parameterValue="1"/>
          </component>
        </trackAudioParameters>
        <editParameter parameterIndex="0" slotIndex="4294967280"/>
      </audioTrack>
      <audioTrack automationLaneOpenState="false" id="10009" index="9" select="false" visible="true">
        <trackParameters trackHeight="74" trackHue="130" trackMinimized="false">
          <name>Piste 9</name>
        </trackParameters>
        <trackAudioParameters audioChannelType="stereo" automationMode="1" monitoring="false" recordArmed="false" solo="false" soloSafe="false">
          <trackOutput outputID="10000" type="trackID"/>
          <trackInput inputID="1"/>
          <component componentGuid="6ede3a2a-c8ad-4b90-91fe-8f393d30eb0f" componentID="Audition.Fader" id="trackFader" name="volume" powered="true">
            <parameter index="0" name="volume" parameterValue="1"/>
            <parameter index="1" name="static gain" parameterValue="1"/>
          </component>
          <component componentGuid="4c6f715a-6a5c-49a4-8b5c-524fef5998d0" componentID="Audition.Mute" id="trackMute" name="Mute" powered="true">
            <parameter index="0" parameterValue="0"/>
            <parameter index="1" name="mute" parameterValue="1"/>
          </component>
          <component componentGuid="89d0c351-6c8e-4b63-97a6-26c8bec74fa4" componentID="Audition.StereoPanner" id="trackPan" name="StereoPanner" powered="true">
            <parameter index="0" name="Panoramique" parameterValue="0"/>
          </component>
          <component componentGuid="4c68059b-9b35-4ea0-a8bf-bf1710f22a1a" componentID="Audition.EQ" id="trackEQ" name="EQ" powered="false">
            <parameter index="0" name="Fréquence papillon grave" parameterValue="0.000834028352983295917510986328125"/>
            <parameter index="1" name="Gain papillon grave" parameterValue="0.5"/>
            <parameter index="2" name="Fréquence papillon aigu" parameterValue="0.74979150295257568359375"/>
            <parameter index="3" name="Gain papillon aigu" parameterValue="0.5"/>
            <parameter index="4" name="Bande d’égaliseur 1 – Fréquence centrale" parameterValue="0.00125104258768260478973388671875"/>
            <parameter index="5" name="Bande d’égaliseur 1 – Facteur Q" parameterValue="0.000199989997781813144683837890625"/>
            <parameter index="6" name="Bande d’égaliseur 1 – Gain" parameterValue="0.5"/>
            <parameter index="7" name="Bande d’égaliseur 1 – Activation" parameterValue="1"/>
            <parameter index="8" name="Bande d’égaliseur 2 – Fréquence centrale" parameterValue="0.0075062550604343414306640625"/>
            <parameter index="9" name="Bande d’égaliseur 2 – Facteur Q" parameterValue="0.000199989997781813144683837890625"/>
            <parameter index="10" name="Bande d’égaliseur 2 – Gain" parameterValue="0.5"/>
            <parameter index="11" name="Bande d’égaliseur 2 – Activation" parameterValue="1"/>
            <parameter index="12" name="Bande d’égaliseur 3 – Fréquence centrale" parameterValue="0.0325271077454090118408203125"/>
            <parameter index="13" name="Bande d’égaliseur 3 – Facteur Q" parameterValue="0.000199989997781813144683837890625"/>
            <parameter index="14" name="Bande d’égaliseur 3 – Gain" parameterValue="0.5"/>
            <parameter index="15" name="Bande d’égaliseur 3 – Activation" parameterValue="1"/>
            <parameter index="16" name="Bande d’égaliseur 4 – Fréquence centrale" parameterValue="0.13261051476001739501953125"/>
            <parameter index="17" name="Bande d’égaliseur 4 – Facteur Q" parameterValue="0.000199989997781813144683837890625"/>
            <parameter index="18" name="Bande d’égaliseur 4 – Gain" parameterValue="0.5"/>
            <parameter index="19" name="Bande d’égaliseur 4 – Activation" parameterValue="1"/>
            <parameter index="20" name="Bande d’égaliseur 5 – Fréquence centrale" parameterValue="0.532944142818450927734375"/>
            <parameter index="21" name="Bande d’égaliseur 5 – Facteur Q" parameterValue="0.000199989997781813144683837890625"/>
            <parameter index="22" name="Bande d’égaliseur 5 – Gain" parameterValue="0.5"/>
            <parameter index="23" name="Bande d’égaliseur 5 – Activation" parameterValue="1"/>
            <parameter index="24" name="Gain principal" parameterValue="0.666666686534881591796875"/>
            <parameter index="25" name="Q constant" parameterValue="1"/>
            <parameter index="26" name="Ordre de filtre coupe-bas" parameterValue="0"/>
            <parameter index="27" name="Ordre de filtre coupe-haut" parameterValue="0"/>
            <parameter index="28" name="Mode ultra-silencieux" parameterValue="0"/>
            <parameter index="29" name="Filtre low-shelf activé" parameterValue="1"/>
            <parameter index="30" name="Filtre high-shelf activé" parameterValue="1"/>
            <parameter index="31" name="Taux d’échantillonnage d’origine" parameterValue="0.25"/>
            <parameter index="32" name="Bande d’égaliseur 1 – Largeur de bande" parameterValue="0.002499990165233612060546875"/>
            <parameter index="33" name="Bande d’égaliseur 2 – Largeur de bande" parameterValue="0.0099999904632568359375"/>
            <parameter index="34" name="Bande d’égaliseur 3 – Largeur de bande" parameterValue="0.0399999916553497314453125"/>
            <parameter index="35" name="Bande d’égaliseur 4 – Largeur de bande" parameterValue="0.15999998152256011962890625"/>
            <parameter index="36" name="Bande d’égaliseur 5 – Largeur de bande" parameterValue="0.63999998569488525390625"/>
            <parameter index="37" name="Filtre passe-haut – Activation" parameterValue="0"/>
            <parameter index="38" name="Fréquence coupure passe-haut" parameterValue="0"/>
            <parameter index="39" name="Pente passe-haut" parameterValue="0.4000000059604644775390625"/>
            <parameter index="40" name="Filtre passe-bas – Activation" parameterValue="0"/>
            <parameter index="41" name="Fréquence coupure passe-bas" parameterValue="0.833194315433502197265625"/>
            <parameter index="42" name="Pente passe-bas" parameterValue="0.4000000059604644775390625"/>
            <parameter index="43" name="Ignorer" parameterValue="0"/>
            <parameter index="44" name="Plage graphique basse" parameterValue="1"/>
          </component>
        </trackAudioParameters>
        <editParameter parameterIndex="0" slotIndex="4294967280"/>
      </audioTrack>
      <audioTrack automationLaneOpenState="false" id="10010" index="10" select="false" visible="true">
        <trackParameters trackHeight="132" trackHue="240" trackMinimized="false">
          <name>Piste 10</name>
        </trackParameters>
        <trackAudioParameters audioChannelType="stereo" automationMode="1" monitoring="false" recordArmed="false" solo="false" soloSafe="false">
          <trackOutput outputID="10000" type="trackID"/>
          <trackInput inputID="1"/>
          <component componentGuid="d0c1b63a-b252-418e-a370-e44e438d484e" componentID="Audition.Fader" id="trackFader" name="volume" powered="true">
            <parameter index="0" name="volume" parameterValue="1"/>
            <parameter index="1" name="static gain" parameterValue="1"/>
          </component>
          <component componentGuid="6acea3b8-517f-46ac-be01-c3c050d8a87e" componentID="Audition.Mute" id="trackMute" name="Mute" powered="true">
            <parameter index="0" parameterValue="0"/>
            <parameter index="1" name="mute" parameterValue="1"/>
          </component>
          <component componentGuid="31294447-ae38-4bda-9e4d-9b47b56f5ed3" componentID="Audition.StereoPanner" id="trackPan" name="StereoPanner" powered="true">
            <parameter index="0" name="Panoramique" parameterValue="0"/>
          </component>
          <component componentGuid="b32c493c-11cd-4473-9aa2-d79a6f5a5f18" componentID="Audition.EQ" id="trackEQ" name="EQ" powered="false">
            <parameter index="0" name="Fréquence papillon grave" parameterValue="0.000834028352983295917510986328125"/>
            <parameter index="1" name="Gain papillon grave" parameterValue="0.5"/>
            <parameter index="2" name="Fréquence papillon aigu" parameterValue="0.74979150295257568359375"/>
            <parameter index="3" name="Gain papillon aigu" parameterValue="0.5"/>
            <parameter index="4" name="Bande d’égaliseur 1 – Fréquence centrale" parameterValue="0.00125104258768260478973388671875"/>
            <parameter index="5" name="Bande d’égaliseur 1 – Facteur Q" parameterValue="0.000199989997781813144683837890625"/>
            <parameter index="6" name="Bande d’égaliseur 1 – Gain" parameterValue="0.5"/>
            <parameter index="7" name="Bande d’égaliseur 1 – Activation" parameterValue="1"/>
            <parameter index="8" name="Bande d’égaliseur 2 – Fréquence centrale" parameterValue="0.0075062550604343414306640625"/>
            <parameter index="9" name="Bande d’égaliseur 2 – Facteur Q" parameterValue="0.000199989997781813144683837890625"/>
            <parameter index="10" name="Bande d’égaliseur 2 – Gain" parameterValue="0.5"/>
            <parameter index="11" name="Bande d’égaliseur 2 – Activation" parameterValue="1"/>
            <parameter index="12" name="Bande d’égaliseur 3 – Fréquence centrale" parameterValue="0.0325271077454090118408203125"/>
            <parameter index="13" name="Bande d’égaliseur 3 – Facteur Q" parameterValue="0.000199989997781813144683837890625"/>
            <parameter index="14" name="Bande d’égaliseur 3 – Gain" parameterValue="0.5"/>
            <parameter index="15" name="Bande d’égaliseur 3 – Activation" parameterValue="1"/>
            <parameter index="16" name="Bande d’égaliseur 4 – Fréquence centrale" parameterValue="0.13261051476001739501953125"/>
            <parameter index="17" name="Bande d’égaliseur 4 – Facteur Q" parameterValue="0.000199989997781813144683837890625"/>
            <parameter index="18" name="Bande d’égaliseur 4 – Gain" parameterValue="0.5"/>
            <parameter index="19" name="Bande d’égaliseur 4 – Activation" parameterValue="1"/>
            <parameter index="20" name="Bande d’égaliseur 5 – Fréquence centrale" parameterValue="0.532944142818450927734375"/>
            <parameter index="21" name="Bande d’égaliseur 5 – Facteur Q" parameterValue="0.000199989997781813144683837890625"/>
            <parameter index="22" name="Bande d’égaliseur 5 – Gain" parameterValue="0.5"/>
            <parameter index="23" name="Bande d’égaliseur 5 – Activation" parameterValue="1"/>
            <parameter index="24" name="Gain principal" parameterValue="0.666666686534881591796875"/>
            <parameter index="25" name="Q constant" parameterValue="1"/>
            <parameter index="26" name="Ordre de filtre coupe-bas" parameterValue="0"/>
            <parameter index="27" name="Ordre de filtre coupe-haut" parameterValue="0"/>
            <parameter index="28" name="Mode ultra-silencieux" parameterValue="0"/>
            <parameter index="29" name="Filtre low-shelf activé" parameterValue="1"/>
            <parameter index="30" name="Filtre high-shelf activé" parameterValue="1"/>
            <parameter index="31" name="Taux d’échantillonnage d’origine" parameterValue="0.25"/>
            <parameter index="32" name="Bande d’égaliseur 1 – Largeur de bande" parameterValue="0.002499990165233612060546875"/>
            <parameter index="33" name="Bande d’égaliseur 2 – Largeur de bande" parameterValue="0.0099999904632568359375"/>
            <parameter index="34" name="Bande d’égaliseur 3 – Largeur de bande" parameterValue="0.0399999916553497314453125"/>
            <parameter index="35" name="Bande d’égaliseur 4 – Largeur de bande" parameterValue="0.15999998152256011962890625"/>
            <parameter index="36" name="Bande d’égaliseur 5 – Largeur de bande" parameterValue="0.63999998569488525390625"/>
            <parameter index="37" name="Filtre passe-haut – Activation" parameterValue="0"/>
            <parameter index="38" name="Fréquence coupure passe-haut" parameterValue="0"/>
            <parameter index="39" name="Pente passe-haut" parameterValue="0.4000000059604644775390625"/>
            <parameter index="40" name="Filtre passe-bas – Activation" parameterValue="0"/>
            <parameter index="41" name="Fréquence coupure passe-bas" parameterValue="0.833194315433502197265625"/>
            <parameter index="42" name="Pente passe-bas" parameterValue="0.4000000059604644775390625"/>
            <parameter index="43" name="Ignorer" parameterValue="0"/>
            <parameter index="44" name="Plage graphique basse" parameterValue="1"/>
          </component>
        </trackAudioParameters>
        <editParameter parameterIndex="0" slotIndex="4294967280"/>
      </audioTrack>
      <audioTrack automationLaneOpenState="false" id="10011" index="11" select="false" visible="true">
        <trackParameters trackHeight="132" trackHue="32" trackMinimized="false">
          <name>Piste 11</name>
        </trackParameters>
        <trackAudioParameters audioChannelType="stereo" automationMode="1" monitoring="false" recordArmed="false" solo="false" soloSafe="false">
          <trackOutput outputID="10000" type="trackID"/>
          <trackInput inputID="1"/>
          <component componentGuid="229dd045-c0fb-4110-a66e-36a3ecc6808e" componentID="Audition.Fader" id="trackFader" name="volume" powered="true">
            <parameter index="0" name="volume" parameterValue="1"/>
            <parameter index="1" name="static gain" parameterValue="1"/>
          </component>
          <component componentGuid="4a1e8fb9-b5f8-4c02-8fb1-5fd567f68255" componentID="Audition.Mute" id="trackMute" name="Mute" powered="true">
            <parameter index="0" parameterValue="0"/>
            <parameter index="1" name="mute" parameterValue="0"/>
          </component>
          <component componentGuid="3f22ccf1-a1f1-4eec-a62c-b25c4f24ff5a" componentID="Audition.StereoPanner" id="trackPan" name="StereoPanner" powered="true">
            <parameter index="0" name="Panoramique" parameterValue="0"/>
          </component>
          <component componentGuid="cda69ee8-9003-4951-9e8a-d5694d07ed71" componentID="Audition.EQ" id="trackEQ" name="EQ" powered="false">
            <parameter index="0" name="Fréquence papillon grave" parameterValue="0.000834028352983295917510986328125"/>
            <parameter index="1" name="Gain papillon grave" parameterValue="0.5"/>
            <parameter index="2" name="Fréquence papillon aigu" parameterValue="0.74979150295257568359375"/>
            <parameter index="3" name="Gain papillon aigu" parameterValue="0.5"/>
            <parameter index="4" name="Bande d’égaliseur 1 – Fréquence centrale" parameterValue="0.00125104258768260478973388671875"/>
            <parameter index="5" name="Bande d’égaliseur 1 – Facteur Q" parameterValue="0.000199989997781813144683837890625"/>
            <parameter index="6" name="Bande d’égaliseur 1 – Gain" parameterValue="0.5"/>
            <parameter index="7" name="Bande d’égaliseur 1 – Activation" parameterValue="1"/>
            <parameter index="8" name="Bande d’égaliseur 2 – Fréquence centrale" parameterValue="0.0075062550604343414306640625"/>
            <parameter index="9" name="Bande d’égaliseur 2 – Facteur Q" parameterValue="0.000199989997781813144683837890625"/>
            <parameter index="10" name="Bande d’égaliseur 2 – Gain" parameterValue="0.5"/>
            <parameter index="11" name="Bande d’égaliseur 2 – Activation" parameterValue="1"/>
            <parameter index="12" name="Bande d’égaliseur 3 – Fréquence centrale" parameterValue="0.0325271077454090118408203125"/>
            <parameter index="13" name="Bande d’égaliseur 3 – Facteur Q" parameterValue="0.000199989997781813144683837890625"/>
            <parameter index="14" name="Bande d’égaliseur 3 – Gain" parameterValue="0.5"/>
            <parameter index="15" name="Bande d’égaliseur 3 – Activation" parameterValue="1"/>
            <parameter index="16" name="Bande d’égaliseur 4 – Fréquence centrale" parameterValue="0.13261051476001739501953125"/>
            <parameter index="17" name="Bande d’égaliseur 4 – Facteur Q" parameterValue="0.000199989997781813144683837890625"/>
            <parameter index="18" name="Bande d’égaliseur 4 – Gain" parameterValue="0.5"/>
            <parameter index="19" name="Bande d’égaliseur 4 – Activation" parameterValue="1"/>
            <parameter index="20" name="Bande d’égaliseur 5 – Fréquence centrale" parameterValue="0.532944142818450927734375"/>
            <parameter index="21" name="Bande d’égaliseur 5 – Facteur Q" parameterValue="0.000199989997781813144683837890625"/>
            <parameter index="22" name="Bande d’égaliseur 5 – Gain" parameterValue="0.5"/>
            <parameter index="23" name="Bande d’égaliseur 5 – Activation" parameterValue="1"/>
            <parameter index="24" name="Gain principal" parameterValue="0.666666686534881591796875"/>
            <parameter index="25" name="Q constant" parameterValue="1"/>
            <parameter index="26" name="Ordre de filtre coupe-bas" parameterValue="0"/>
            <parameter index="27" name="Ordre de filtre coupe-haut" parameterValue="0"/>
            <parameter index="28" name="Mode ultra-silencieux" parameterValue="0"/>
            <parameter index="29" name="Filtre low-shelf activé" parameterValue="1"/>
            <parameter index="30" name="Filtre high-shelf activé" parameterValue="1"/>
            <parameter index="31" name="Taux d’échantillonnage d’origine" parameterValue="0.25"/>
            <parameter index="32" name="Bande d’égaliseur 1 – Largeur de bande" parameterValue="0.002499990165233612060546875"/>
            <parameter index="33" name="Bande d’égaliseur 2 – Largeur de bande" parameterValue="0.0099999904632568359375"/>
            <parameter index="34" name="Bande d’égaliseur 3 – Largeur de bande" parameterValue="0.0399999916553497314453125"/>
            <parameter index="35" name="Bande d’égaliseur 4 – Largeur de bande" parameterValue="0.15999998152256011962890625"/>
            <parameter index="36" name="Bande d’égaliseur 5 – Largeur de bande" parameterValue="0.63999998569488525390625"/>
            <parameter index="37" name="Filtre passe-haut – Activation" parameterValue="0"/>
            <parameter index="38" name="Fréquence coupure passe-haut" parameterValue="0"/>
            <parameter index="39" name="Pente passe-haut" parameterValue="0.4000000059604644775390625"/>
            <parameter index="40" name="Filtre passe-bas – Activation" parameterValue="0"/>
            <parameter index="41" name="Fréquence coupure passe-bas" parameterValue="0.833194315433502197265625"/>
            <parameter index="42" name="Pente passe-bas" parameterValue="0.4000000059604644775390625"/>
            <parameter index="43" name="Ignorer" parameterValue="0"/>
            <parameter index="44" name="Plage graphique basse" parameterValue="1"/>
          </component>
        </trackAudioParameters>
        <editParameter parameterIndex="0" slotIndex="4294967280"/>
      </audioTrack>
      <masterTrack automationLaneOpenState="false" id="10000" index="12" select="false" visible="true">
        <trackParameters trackHeight="74" trackHue="-1" trackMinimized="false">
          <name>Principale</name>
        </trackParameters>
        <trackAudioParameters audioChannelType="stereo" automationMode="1" monitoring="false" recordArmed="false" solo="false" soloSafe="true">
          <trackOutput outputID="1" type="hardwareOutput"/>
          <trackInput inputID="-1"/>
          <component componentGuid="fc80ed70-014b-4f7a-971b-532c1520b191" componentID="Audition.Fader" id="trackFader" name="volume" powered="true">
            <parameter index="0" name="volume" parameterValue="1"/>
            <parameter index="1" name="static gain" parameterValue="1"/>
          </component>
          <component componentGuid="50ec7ef1-2502-41c6-b8e1-e2e169e82338" componentID="Audition.Mute" id="trackMute" name="Mute" powered="true">
            <parameter index="0" parameterValue="0"/>
            <parameter index="1" name="mute" parameterValue="0"/>
          </component>
          <component componentGuid="4a68b504-8599-4158-bde6-2a8c24da7c4f" componentID="Audition.StereoPanner" id="trackPan" name="StereoPanner" powered="true">
            <parameter index="0" name="Panoramique" parameterValue="0"/>
          </component>
          <component componentGuid="5c7bfb00-6642-4e8e-86b4-2ec73aad30d4" componentID="Audition.EQ" id="trackEQ" name="EQ" powered="false">
            <parameter index="0" name="Fréquence papillon grave" parameterValue="0.000834028352983295917510986328125"/>
            <parameter index="1" name="Gain papillon grave" parameterValue="0.5"/>
            <parameter index="2" name="Fréquence papillon aigu" parameterValue="0.74979150295257568359375"/>
            <parameter index="3" name="Gain papillon aigu" parameterValue="0.5"/>
            <parameter index="4" name="Bande d’égaliseur 1 – Fréquence centrale" parameterValue="0.00125104258768260478973388671875"/>
            <parameter index="5" name="Bande d’égaliseur 1 – Facteur Q" parameterValue="0.000199989997781813144683837890625"/>
            <parameter index="6" name="Bande d’égaliseur 1 – Gain" parameterValue="0.5"/>
            <parameter index="7" name="Bande d’égaliseur 1 – Activation" parameterValue="1"/>
            <parameter index="8" name="Bande d’égaliseur 2 – Fréquence centrale" parameterValue="0.0075062550604343414306640625"/>
            <parameter index="9" name="Bande d’égaliseur 2 – Facteur Q" parameterValue="0.000199989997781813144683837890625"/>
            <parameter index="10" name="Bande d’égaliseur 2 – Gain" parameterValue="0.5"/>
            <parameter index="11" name="Bande d’égaliseur 2 – Activation" parameterValue="1"/>
            <parameter index="12" name="Bande d’égaliseur 3 – Fréquence centrale" parameterValue="0.0325271077454090118408203125"/>
            <parameter index="13" name="Bande d’égaliseur 3 – Facteur Q" parameterValue="0.000199989997781813144683837890625"/>
            <parameter index="14" name="Bande d’égaliseur 3 – Gain" parameterValue="0.5"/>
            <parameter index="15" name="Bande d’égaliseur 3 – Activation" parameterValue="1"/>
            <parameter index="16" name="Bande d’égaliseur 4 – Fréquence centrale" parameterValue="0.13261051476001739501953125"/>
            <parameter index="17" name="Bande d’égaliseur 4 – Facteur Q" parameterValue="0.000199989997781813144683837890625"/>
            <parameter index="18" name="Bande d’égaliseur 4 – Gain" parameterValue="0.5"/>
            <parameter index="19" name="Bande d’égaliseur 4 – Activation" parameterValue="1"/>
            <parameter index="20" name="Bande d’égaliseur 5 – Fréquence centrale" parameterValue="0.532944142818450927734375"/>
            <parameter index="21" name="Bande d’égaliseur 5 – Facteur Q" parameterValue="0.000199989997781813144683837890625"/>
            <parameter index="22" name="Bande d’égaliseur 5 – Gain" parameterValue="0.5"/>
            <parameter index="23" name="Bande d’égaliseur 5 – Activation" parameterValue="1"/>
            <parameter index="24" name="Gain principal" parameterValue="0.666666686534881591796875"/>
            <parameter index="25" name="Q constant" parameterValue="1"/>
            <parameter index="26" name="Ordre de filtre coupe-bas" parameterValue="0"/>
            <parameter index="27" name="Ordre de filtre coupe-haut" parameterValue="0"/>
            <parameter index="28" name="Mode ultra-silencieux" parameterValue="0"/>
            <parameter index="29" name="Filtre low-shelf activé" parameterValue="1"/>
            <parameter index="30" name="Filtre high-shelf activé" parameterValue="1"/>
            <parameter index="31" name="Taux d’échantillonnage d’origine" parameterValue="0.25"/>
            <parameter index="32" name="Bande d’égaliseur 1 – Largeur de bande" parameterValue="0.002499990165233612060546875"/>
            <parameter index="33" name="Bande d’égaliseur 2 – Largeur de bande" parameterValue="0.0099999904632568359375"/>
            <parameter index="34" name="Bande d’égaliseur 3 – Largeur de bande" parameterValue="0.0399999916553497314453125"/>
            <parameter index="35" name="Bande d’égaliseur 4 – Largeur de bande" parameterValue="0.15999998152256011962890625"/>
            <parameter index="36" name="Bande d’égaliseur 5 – Largeur de bande" parameterValue="0.63999998569488525390625"/>
            <parameter index="37" name="Filtre passe-haut – Activation" parameterValue="0"/>
            <parameter index="38" name="Fréquence coupure passe-haut" parameterValue="0"/>
            <parameter index="39" name="Pente passe-haut" parameterValue="0.4000000059604644775390625"/>
            <parameter index="40" name="Filtre passe-bas – Activation" parameterValue="0"/>
            <parameter index="41" name="Fréquence coupure passe-bas" parameterValue="0.833194315433502197265625"/>
            <parameter index="42" name="Pente passe-bas" parameterValue="0.4000000059604644775390625"/>
            <parameter index="43" name="Ignorer" parameterValue="0"/>
            <parameter index="44" name="Plage graphique basse" parameterValue="1"/>
          </component>
        </trackAudioParameters>
        <editParameter parameterIndex="0" slotIndex="4294967280"/>
      </masterTrack>
    </tracks>
    <sessionState ctiPosition="5574379" smpteStart="0">
      <selectionState selectionDuration="0" selectionStart="5574379"/>
      <viewState horizontalViewDuration="612079" horizontalViewStart="2181456" trackControlsWidth="224" verticalScrollOffset="0"/>
      <timeFormatState beatsPerBar="4" beatsPerMinute="120" customFrameRate="12" linkToDefaultTimeSettings="true" noteLength="4" subdivisions="16" timeCodeDropFrame="false" timeCodeFrameRate="30" timeCodeNTSC="false" timeFormat="timeFormatDecimal"/>
      <mixingOptionState defaultPanModeLogarithmic="false" panPower="-3" playOverlappingClips="false"/>
    </sessionState>
    <xmpMetadata><![CDATA[<?xpacket begin="﻿" id="W5M0MpCehiHzreSzNTczkc9d"?>
<x:xmpmeta xmlns:x="adobe:ns:meta/" x:xmptk="Adobe XMP Core 5.6-c148 79.164036, 2019/08/13-01:06:57        ">
   <rdf:RDF xmlns:rdf="http://www.w3.org/1999/02/22-rdf-syntax-ns#">
      <rdf:Description rdf:about=""
            xmlns:xmp="http://ns.adobe.com/xap/1.0/"
            xmlns:xmpMM="http://ns.adobe.com/xap/1.0/mm/"
            xmlns:stEvt="http://ns.adobe.com/xap/1.0/sType/ResourceEvent#"
            xmlns:stRef="http://ns.adobe.com/xap/1.0/sType/ResourceRef#"
            xmlns:dc="http://purl.org/dc/elements/1.1/"
            xmlns:xmpDM="http://ns.adobe.com/xmp/1.0/DynamicMedia/">
         <xmp:CreatorTool>Adobe Audition 13.0 (Windows)</xmp:CreatorTool>
         <xmp:CreateDate>2021-01-25T13:55:22+01:00</xmp:CreateDate>
         <xmp:MetadataDate>2021-01-25T15:48:32+01:00</xmp:MetadataDate>
         <xmp:ModifyDate>2021-01-25T15:48:32+01:00</xmp:ModifyDate>
         <xmpMM:InstanceID>xmp.iid:fdcff287-6ba4-a040-a35d-2755f50c0344</xmpMM:InstanceID>
         <xmpMM:DocumentID>xmp.did:fdcff287-6ba4-a040-a35d-2755f50c0344</xmpMM:DocumentID>
         <xmpMM:OriginalDocumentID>xmp.did:a23a5e84-5674-f14f-ad2b-550caa7c2be5</xmpMM:OriginalDocumentID>
         <xmpMM:History>
            <rdf:Seq>
               <rdf:li rdf:parseType="Resource">
                  <stEvt:action>saved</stEvt:action>
                  <stEvt:instanceID>xmp.iid:a23a5e84-5674-f14f-ad2b-550caa7c2be5</stEvt:instanceID>
                  <stEvt:when>2021-01-25T13:55:23+01:00</stEvt:when>
                  <stEvt:softwareAgent>Adobe Audition 13.0 (Windows)</stEvt:softwareAgent>
                  <stEvt:changed>/metadata</stEvt:changed>
               </rdf:li>
               <rdf:li rdf:parseType="Resource">
                  <stEvt:action>saved</stEvt:action>
                  <stEvt:instanceID>xmp.iid:e5fbcb8a-7f61-7d49-ae6a-8654e3160967</stEvt:instanceID>
                  <stEvt:when>2021-01-25T15:24:09+01:00</stEvt:when>
                  <stEvt:softwareAgent>Adobe Audition 13.0 (Windows)</stEvt:softwareAgent>
                  <stEvt:changed>/metadata</stEvt:changed>
               </rdf:li>
               <rdf:li rdf:parseType="Resource">
                  <stEvt:action>saved</stEvt:action>
                  <stEvt:instanceID>xmp.iid:7ca9b360-aacf-e94a-8e51-12e019d450a8</stEvt:instanceID>
                  <stEvt:when>2021-01-25T15:24:09+01:00</stEvt:when>
                  <stEvt:softwareAgent>Adobe Audition 13.0 (Windows)</stEvt:softwareAgent>
                  <stEvt:changed>/</stEvt:changed>
               </rdf:li>
               <rdf:li rdf:parseType="Resource">
                  <stEvt:action>saved</stEvt:action>
                  <stEvt:instanceID>xmp.iid:5b168642-fdeb-014b-842a-58b87ac20ae3</stEvt:instanceID>
                  <stEvt:when>2021-01-25T15:24:22+01:00</stEvt:when>
                  <stEvt:softwareAgent>Adobe Audition 13.0 (Windows)</stEvt:softwareAgent>
                  <stEvt:changed>/metadata</stEvt:changed>
               </rdf:li>
               <rdf:li rdf:parseType="Resource">
                  <stEvt:action>saved</stEvt:action>
                  <stEvt:instanceID>xmp.iid:73a49c6b-8827-c14c-bcdc-f9e49d50b611</stEvt:instanceID>
                  <stEvt:when>2021-01-25T15:24:22+01:00</stEvt:when>
                  <stEvt:softwareAgent>Adobe Audition 13.0 (Windows)</stEvt:softwareAgent>
                  <stEvt:changed>/</stEvt:changed>
               </rdf:li>
               <rdf:li rdf:parseType="Resource">
                  <stEvt:action>saved</stEvt:action>
                  <stEvt:instanceID>xmp.iid:ec2b6a4a-7864-6c46-ac71-9feb79f81a05</stEvt:instanceID>
                  <stEvt:when>2021-01-25T15:48:32+01:00</stEvt:when>
                  <stEvt:softwareAgent>Adobe Audition 13.0 (Windows)</stEvt:softwareAgent>
                  <stEvt:changed>/metadata</stEvt:changed>
               </rdf:li>
               <rdf:li rdf:parseType="Resource">
                  <stEvt:action>saved</stEvt:action>
                  <stEvt:instanceID>xmp.iid:fdcff287-6ba4-a040-a35d-2755f50c0344</stEvt:instanceID>
                  <stEvt:when>2021-01-25T15:48:32+01:00</stEvt:when>
                  <stEvt:softwareAgent>Adobe Audition 13.0 (Windows)</stEvt:softwareAgent>
                  <stEvt:changed>/</stEvt:changed>
               </rdf:li>
            </rdf:Seq>
         </xmpMM:History>
         <xmpMM:DerivedFrom rdf:parseType="Resource">
            <stRef:instanceID>xmp.iid:ec2b6a4a-7864-6c46-ac71-9feb79f81a05</stRef:instanceID>
            <stRef:documentID>xmp.did:73a49c6b-8827-c14c-bcdc-f9e49d50b611</stRef:documentID>
            <stRef:originalDocumentID>xmp.did:a23a5e84-5674-f14f-ad2b-550caa7c2be5</stRef:originalDocumentID>
         </xmpMM:DerivedFrom>
         <dc:format>application/xml</dc:format>
         <xmpDM:Tracks>
            <rdf:Bag>
               <rdf:li rdf:parseType="Resource">
                  <xmpDM:trackName>CuePoint Markers</xmpDM:trackName>
                  <xmpDM:trackType>Cue</xmpDM:trackType>
                  <xmpDM:frameRate>f48000</xmpDM:frameRate>
               </rdf:li>
               <rdf:li rdf:parseType="Resource">
                  <xmpDM:trackName>CD Track Markers</xmpDM:trackName>
                  <xmpDM:trackType>Track</xmpDM:trackType>
                  <xmpDM:frameRate>f48000</xmpDM:frameRate>
               </rdf:li>
               <rdf:li rdf:parseType="Resource">
                  <xmpDM:trackName>Subclip Markers</xmpDM:trackName>
                  <xmpDM:trackType>InOut</xmpDM:trackType>
                  <xmpDM:frameRate>f48000</xmpDM:frameRate>
               </rdf:li>
            </rdf:Bag>
         </xmpDM:Tracks>
      </rdf:Description>
   </rdf:RDF>
</x:xmpmeta>
                                                                                                    
                                                                                                    
                                                                                                    
                                                                                                    
                                                                                                    
                                                                                                    
                                                                                                    
                                                                                                    
                                                                                                    
                                                                                                    
                                                                                                    
                                                                                                    
                                                                                                    
                                                                                                    
                                                                                                    
                                                                                                    
                                                                                                    
                                                                                                    
                                                                                                    
                                                                                                    
                           
<?xpacket end="w"?>]]></xmpMetadata>
    <clipGroups/>
    <metronome enabled="false" pattern="downBeat subdivision subdivision subdivision " soundSet="sticks">
      <metronomeTrack automationLaneOpenState="false" id="40000" index="0" select="false" visible="false">
        <trackParameters trackHeight="77" trackHue="-1" trackMinimized="false">
          <name>Métronome</name>
        </trackParameters>
        <trackAudioParameters audioChannelType="mono" automationMode="1" monitoring="false" recordArmed="false" solo="false" soloSafe="true">
          <trackOutput outputID="10000" type="trackID"/>
          <trackInput inputID="-1"/>
          <component componentGuid="e614d743-fc43-4161-a8e3-56ef5a97b3e4" componentID="Audition.Fader" id="trackFader" name="volume" powered="true">
            <parameter index="0" name="volume" parameterValue="0.50118720531463623046875"/>
            <parameter index="1" name="static gain" parameterValue="1"/>
          </component>
          <component componentGuid="b02e2e18-898a-449a-938d-49772bd6241a" componentID="Audition.Mute" id="trackMute" name="Mute" powered="true">
            <parameter index="0" parameterValue="0"/>
            <parameter index="1" name="mute" parameterValue="0"/>
          </component>
          <component componentGuid="7678816b-791a-4c56-b4e6-f23f6537bc2f" componentID="Audition.StereoPanner" id="trackPan" name="StereoPanner" powered="true">
            <parameter index="0" name="Panoramique" parameterValue="0"/>
          </component>
          <component componentGuid="4b3fce5f-9b48-400f-8914-16af20c9dda3" componentID="Audition.EQ" id="trackEQ" name="EQ" powered="false">
            <parameter index="0" name="Fréquence papillon grave" parameterValue="0.000834028352983295917510986328125"/>
            <parameter index="1" name="Gain papillon grave" parameterValue="0.5"/>
            <parameter index="2" name="Fréquence papillon aigu" parameterValue="0.74979150295257568359375"/>
            <parameter index="3" name="Gain papillon aigu" parameterValue="0.5"/>
            <parameter index="4" name="Bande d’égaliseur 1 – Fréquence centrale" parameterValue="0.00125104258768260478973388671875"/>
            <parameter index="5" name="Bande d’égaliseur 1 – Facteur Q" parameterValue="0.000199989997781813144683837890625"/>
            <parameter index="6" name="Bande d’égaliseur 1 – Gain" parameterValue="0.5"/>
            <parameter index="7" name="Bande d’égaliseur 1 – Activation" parameterValue="1"/>
            <parameter index="8" name="Bande d’égaliseur 2 – Fréquence centrale" parameterValue="0.0075062550604343414306640625"/>
            <parameter index="9" name="Bande d’égaliseur 2 – Facteur Q" parameterValue="0.000199989997781813144683837890625"/>
            <parameter index="10" name="Bande d’égaliseur 2 – Gain" parameterValue="0.5"/>
            <parameter index="11" name="Bande d’égaliseur 2 – Activation" parameterValue="1"/>
            <parameter index="12" name="Bande d’égaliseur 3 – Fréquence centrale" parameterValue="0.0325271077454090118408203125"/>
            <parameter index="13" name="Bande d’égaliseur 3 – Facteur Q" parameterValue="0.000199989997781813144683837890625"/>
            <parameter index="14" name="Bande d’égaliseur 3 – Gain" parameterValue="0.5"/>
            <parameter index="15" name="Bande d’égaliseur 3 – Activation" parameterValue="1"/>
            <parameter index="16" name="Bande d’égaliseur 4 – Fréquence centrale" parameterValue="0.13261051476001739501953125"/>
            <parameter index="17" name="Bande d’égaliseur 4 – Facteur Q" parameterValue="0.000199989997781813144683837890625"/>
            <parameter index="18" name="Bande d’égaliseur 4 – Gain" parameterValue="0.5"/>
            <parameter index="19" name="Bande d’égaliseur 4 – Activation" parameterValue="1"/>
            <parameter index="20" name="Bande d’égaliseur 5 – Fréquence centrale" parameterValue="0.532944142818450927734375"/>
            <parameter index="21" name="Bande d’égaliseur 5 – Facteur Q" parameterValue="0.000199989997781813144683837890625"/>
            <parameter index="22" name="Bande d’égaliseur 5 – Gain" parameterValue="0.5"/>
            <parameter index="23" name="Bande d’égaliseur 5 – Activation" parameterValue="1"/>
            <parameter index="24" name="Gain principal" parameterValue="0.666666686534881591796875"/>
            <parameter index="25" name="Q constant" parameterValue="1"/>
            <parameter index="26" name="Ordre de filtre coupe-bas" parameterValue="0"/>
            <parameter index="27" name="Ordre de filtre coupe-haut" parameterValue="0"/>
            <parameter index="28" name="Mode ultra-silencieux" parameterValue="0"/>
            <parameter index="29" name="Filtre low-shelf activé" parameterValue="1"/>
            <parameter index="30" name="Filtre high-shelf activé" parameterValue="1"/>
            <parameter index="31" name="Taux d’échantillonnage d’origine" parameterValue="0.25"/>
            <parameter index="32" name="Bande d’égaliseur 1 – Largeur de bande" parameterValue="0.002499990165233612060546875"/>
            <parameter index="33" name="Bande d’égaliseur 2 – Largeur de bande" parameterValue="0.0099999904632568359375"/>
            <parameter index="34" name="Bande d’égaliseur 3 – Largeur de bande" parameterValue="0.0399999916553497314453125"/>
            <parameter index="35" name="Bande d’égaliseur 4 – Largeur de bande" parameterValue="0.15999998152256011962890625"/>
            <parameter index="36" name="Bande d’égaliseur 5 – Largeur de bande" parameterValue="0.63999998569488525390625"/>
            <parameter index="37" name="Filtre passe-haut – Activation" parameterValue="0"/>
            <parameter index="38" name="Fréquence coupure passe-haut" parameterValue="0"/>
            <parameter index="39" name="Pente passe-haut" parameterValue="0.4000000059604644775390625"/>
            <parameter index="40" name="Filtre passe-bas – Activation" parameterValue="0"/>
            <parameter index="41" name="Fréquence coupure passe-bas" parameterValue="0.833194315433502197265625"/>
            <parameter index="42" name="Pente passe-bas" parameterValue="0.4000000059604644775390625"/>
            <parameter index="43" name="Ignorer" parameterValue="0"/>
            <parameter index="44" name="Plage graphique basse" parameterValue="1"/>
          </component>
        </trackAudioParameters>
        <editParameter parameterIndex="0" slotIndex="4294967280"/>
      </metronomeTrack>
    </metronome>
    <properties>
      <property key="EssentialSoundConfigurations">[{"Guid":"a8b40e3e-13e7-4c1f-b382-96058f1f691d","Name":"$$$/app/Presets/DefaultPresetName=(Default)","PresetData":{"ModeID":"ambience","Models":{"model_ducking":{},"model_loudness":{"DefaultLoudness":{"type":"float","value":-30},"LoudnessStandard":{"type":"std::uint32_t","value":0},"MaxLoudness":{"type":"float","value":-12},"MinLoudness":{"type":"float","value":-42}},"model_soundeffects":{"ReverbPresets":{"type":"tree::any","value":{"$$$/app/Presets/EssentialSound/ReverbPreset/LargeRoomAmbience=Large Room Ambience":{"type":"array::float","value":[0.051507499068975449,0.32432401180267334,0.29292899370193481,0.30000001192092896,0.20000000298023224,0,0.14285700023174286,0.40000000596046448,0.5,0.69999998807907104,0.30000001192092896,0.25125628709793091,0.03125]},"$$$/app/Presets/EssentialSound/ReverbPreset/OutsideAmbience=Outside Ambience":{"type":"array::float","value":[0.091708503663539886,0.043893899768590927,1,0.5,0.20000000298023224,0.80000001192092896,0.18367299437522888,1,0.5,0,0.80000001192092896,0.25125628709793091,0.03125]},"$$$/app/Presets/EssentialSound/ReverbPreset/RoomAmbience=Room Ambience":{"type":"array::float","value":[0.057788901031017303,0.44944900274276733,0.49494898319244385,0.89999997615814209,0.10000000149011612,0.15000000596046448,0.081632703542709351,0.40000000596046448,0.5,0.80000001192092896,0.20000000298023224,0.25125628709793091,0.03125]},"$$$/app/Presets/EssentialSound/ReverbPreset/WindEffect=Wind Effect":{"type":"array::float","value":[0.19597999751567841,0.6896899938583374,0.69696998596191406,0.25,0.5,0.5,0.23469400405883789,0.51999998092651367,0.5,0.75,0.25,0.25125628709793091,0.03125]}}}},"model_stereowidth":{},"model_volume":{"MaxGain":{"type":"float","value":15},"MinGain":{"type":"float","value":-60}}},"Version":1},"Type":"1c19ca71-c24c-49cd-8dd5-2cc46018507a","Version":1},{"Guid":"58dc27a8-6a2a-480c-bd0c-4b45fff346a6","Name":"$$$/app/Presets/DefaultPresetName=(Default)","PresetData":{"ModeID":"dialog","Models":{"model_clarity":{"EQPresets":{"type":"tree::any","value":{"$$$/app/Presets/EssentialSound/EQPreset/BackgroundVoice=Background Voice":{"type":"array::float","value":[0.12099699676036835,0.5,0.39240506291389465,0,0.5,0.5,0.5,0.5,0.5,0.47827938199043274,0.45772689580917358,0.45778733491897583,0.47946760058403015,0.5,0]},"$$$/app/Presets/EssentialSound/EQPreset/Intercom=Intercom":{"type":"array::float","value":[0.19432899355888367,0.5,1,0,0.071499988436698914,0.071499988436698914,0.071499988436698914,0.40238627791404724,0.48571401834487915,0.5,0.55155748128890991,0.59602576494216919,0.22246670722961426,0.071499988436698914,0]},"$$$/app/Presets/EssentialSound/EQPreset/LockedInTheTrunk=Locked in the Trunk":{"type":"array::float","value":[0.12099699676036835,0.5,0.79746836423873901,0,0.5,0.5,0.5,0.5,0.5,0.32846158742904663,0.15721426904201508,0.15721426904201508,0.15721426904201508,0.15721426904201508,0]},"$$$/app/Presets/EssentialSound/EQPreset/OldRadio=Old Radio":{"type":"array::float","value":[0.12099699676036835,0.5,0.79746836423873901,0,0.15721426904201508,0.15721426904201508,0.15721426904201508,0.28442040085792542,0.48315632343292236,0.36498492956161499,0.52853888273239136,0.43511500954627991,0.27154684066772461,0.15721426904201508,0]},"$$$/app/Presets/EssentialSound/EQPreset/OnTheTelephone=On the Telephone":{"type":"array::float","value":[0.12099699676036835,0.5,0.39240506291389465,0,0.32864287495613098,0.32864287495613098,0.32864287495613098,0.32864287495613098,0.48571401834487915,0.53071397542953491,0.53071397542953491,0.48357096314430237,0.32864287495613098,0.32864287495613098,0]},"$$$/app/Presets/EssentialSound/EQPreset/OutsideOfTheRoom=Outside of the Room":{"type":"array::float","value":[0.12099699676036835,0.5,0.79746836423873901,0,0.42539370059967041,0.47865453362464905,0.5,0.5,0.48571401834487915,0.40073278546333313,0.25656309723854065,0.15721426904201508,0.15721426904201508,0.15721426904201508,0]},"$$$/app/Presets/EssentialSound/EQPreset/PodcastVoice=Podcast Voice":{"type":"array::float","value":[0.12099699676036835,0.5,0.39240506291389465,0,0.5,0.5,0.5,0.51789408922195435,0.50770342350006104,0.5,0.51789408922195435,0.528114914894104,0.5102812647819519,0.5,0]},"$$$/app/Presets/EssentialSound/EQPreset/SubtleBoostFemale=Subtle Boost (Female)":{"type":"array::float","value":[0.096553400158882141,0.5,0.29113924503326416,0,0.5,0.5,0.5,0.5,0.5,0.51933407783508301,0.54642897844314575,0.52706766128540039,0.5,0.5,0]},"$$$/app/Presets/EssentialSound/EQPreset/SubtleBoostMale=Subtle Boost (Male)":{"type":"array::float","value":[0.096553400158882141,0.5,0.29113924503326416,0,0.5,0.5,0.5,0.5,0.5,0.5135338306427002,0.54642897844314575,0.51933407783508301,0.5,0.5,0]},"$$$/app/Presets/EssentialSound/EQPreset/ThatPublicRadioSound=That Public Radio Sound":{"type":"array::float","value":[0.12099699676036835,0.5,0.79746836423873901,0,0.15721426904201508,0.15721426904201508,0.15721426904201508,0.36334344744682312,0.49468311667442322,0.5,0.5,0.5,0.5,0.5,0]},"$$$/app/Presets/EssentialSound/EQPreset/VocalPresence=Vocal Presence":{"type":"array::float","value":[0.096553400158882141,0.5,0.32489451766014099,0,0.3572143018245697,0.3572143018245697,0.46428570151329041,0.47857141494750977,0.4763694703578949,0.49570354819297791,0.55924957990646362,0.56523394584655762,0.50859290361404419,0.46992480754852295,0]}}}},"model_loudness":{"DefaultLoudness":{"type":"float","value":-23},"LoudnessStandard":{"type":"std::uint32_t","value":0},"MaxLoudness":{"type":"float","value":-12},"MinLoudness":{"type":"float","value":-42}},"model_restoration":{"ReduceNoiseMaxSetting":{"type":"array::float","value":[1,0,0,0,0]},"ReduceNoiseMinSetting":{"type":"array::float","value":[0,0,0,0,0]},"ReduceReverbMaxSetting":{"type":"array::float","value":[1,0,1,0,0]},"ReduceReverbMinSetting":{"type":"array::float","value":[0,0,1,0,0]},"ReduceRumbleMaxSetting":{"type":"array::float","value":[1,0.061583578586578369,0.375,0,0,0.00083333335351198912,1,0,1,0.0390625,0.00083408987848088145,0,0.0041666668839752674,0.00022554649331141263,0.0046875001862645149,0.75,0.0052083334885537624,0.75,1,0.75,0.0040520834736526012,0.75,0.0042629167437553406,0.00022554649331141263,0.0064883334562182426,0.00022554649331141263,0.006866666954010725,0.75,0.0071704164147377014,0.00022554649331141263,0.01041458360850811,0.00022554649331141263,0.010900000110268593,0.75,0.011407917365431786,0.00022554649331141263,0.015606249682605267,0.00022554649331141263,0.016333334147930145,0.75,0.017094582319259644,0.00022554649331141263,0.026243748143315315,0.00022554649331141263,0.0274666678160429,0.75,0.028746666386723518,0.00022554649331141263,0.041658751666545868,0.00022554649331141263,0.043600000441074371,0.75,0.045631669461727142,0.00022554649331141263,0.062424581497907639,0.00022554649331141263,0.065333336591720581,0.75,0.068377502262592316,0.00022554649331141263,0.10497540980577469,0.00022554649331141263,0.1098666712641716,0.75,0.11498583108186722,0.00022554649331141263,0.16663584113121033,0.00022554649331141263,0.17440000176429749,0.75,0.18252624571323395,0.00022554649331141263,0.91874998807907104,0.00022554649331141263,1,0.00022554649331141263,0,0,0,0,0,0,0,0,0,0,0,0,0,0,0,0,0,0,0,0,0,0,0,0,0,0,0,0,0,0,0,0,0,0,0,0,0,0,0,0,0,0,0,0,0,0,0,0,0,0,0,0,0,0,0,0,0,0,0,0,0,0,0,0,0,0,0,0,0,0,0,0,0,0,0,0,0,0,0,0,0,0,0,0,0,0,0,0,0,0,0,0,0,0,0,0,0,0,0,0,0,0,0,0,0,0,0,0,0,0,0,0,0,0,0,0,0,0,0,0,0,0,0,0,0,0,0,0,0,0,0,0,0,0,0,0,0,0,0,0,0,0,0,0,0,0,0,0,0,0,0,0,0,0,0,0,0,0,0,0,0,0,0,0,0,0,0,0,0,0,0,0,0,0,0,0,0,0,0,0,0,0,0,0,0,0,0,0,0,0]},"ReduceRumbleMinSetting":{"type":"array::float","value":[1,0.061583578586578369,0.375,0,0,0.00083333335351198912,1,0,1,0.0390625,0.00083408987848088145,0.75,0.0041666668839752674,0.75,0.0046875001862645149,0.75,0.0052083334885537624,0.75,1,0.75,0.91874998807907104,0.61237245798110962,1,0.61237245798110962,0,0,0,0,0,0,0,0,0,0,0,0,0,0,0,0,0,0,0,0,0,0,0,0,0,0,0,0,0,0,0,0,0,0,0,0,0,0,0,0,0,0,0,0,0,0,0,0,0,0,0,0,0,0,0,0,0,0,0,0,0,0,0,0,0,0,0,0,0,0,0,0,0,0,0,0,0,0,0,0,0,0,0,0,0,0,0,0,0,0,0,0,0,0,0,0,0,0,0,0,0,0,0,0,0,0,0,0,0,0,0,0,0,0,0,0,0,0,0,0,0,0,0,0,0,0,0,0,0,0,0,0,0,0,0,0,0,0,0,0,0,0,0,0,0,0,0,0,0,0,0,0,0,0,0,0,0,0,0,0,0,0,0,0,0,0,0,0,0,0,0,0,0,0,0,0,0,0,0,0,0,0,0,0,0,0,0,0,0,0,0,0,0,0,0,0,0,0,0,0,0,0,0,0,0,0,0,0,0,0,0,0,0,0,0,0,0,0,0,0,0,0,0,0,0,0,0,0,0,0,0,0,0,0,0,0,0,0,0,0,0,0]},"ReduceSibilanceMaxSetting":{"type":"array::float","value":[0.5,0.19983997941017151,0.18367347121238708,0.26086956262588501,0.52702701091766357,0,1,0,0,0,0,0.75,1,1,0.40000000596046448]},"ReduceSibilanceMinSetting":{"type":"array::float","value":[0.875,0.19983997941017151,0.18367347121238708,0.19130434095859528,0.25675675272941589,0,1,0,0,0,0,0.75,1,1,0.40000000596046448]}},"model_soundeffects":{"ReverbPresets":{"type":"tree::any","value":{"$$$/app/Presets/EssentialSound/ReverbPreset/Auditorium=Auditorium":{"type":"array::float","value":[0.013047545216977596,0.15895412862300873,1,0.89999997615814209,0,0.52007436752319336,0.41663265228271484,0.46000000834465027,0.5,0.73000001907348633,0.15999999642372131,0.75376886129379272,0.03125]},"$$$/app/Presets/EssentialSound/ReverbPreset/Church=Church":{"type":"array::float","value":[0.032663315534591675,0.39939939975738525,0.79797977209091187,0.25,0.5,0.5,0.2297959178686142,0.72000002861022949,0.5,0.62999999523162842,0.87999999523162842,0.25125628709793091,0.03125]},"$$$/app/Presets/EssentialSound/ReverbPreset/LargeReflectiveRoom=Large Reflective Room":{"type":"array::float","value":[0.0074449013918638229,0.098988421261310577,0.79890537261962891,0.89999997615814209,0.10000000149011612,0.40110713243484497,0.060284845530986786,0.27522978186607361,0.5,0.73000001907348633,0.31999999284744263,0.25125628709793091,0.03125]},"$$$/app/Presets/EssentialSound/ReverbPreset/OutsideTheClub=Outside the Club":{"type":"array::float","value":[0.020615793764591217,0.050136558711528778,0.69696998596191406,0.25,0.094355784356594086,0.22242647409439087,0.1071428582072258,0.2800000011920929,0.5,0.73000001907348633,0.46000000834465027,0.25125628709793091,0.03125]},"$$$/app/Presets/EssentialSound/ReverbPreset/SmallDryRoom=Small Dry Room":{"type":"array::float","value":[0.24623115360736847,0.69975000619888306,0.29292899370193481,0.40000000596046448,0.20000000298023224,0.40000000596046448,0.039285715669393539,0.10000000149011612,0.5,1,0.5,0.75376886129379272,0.03125]},"$$$/app/Presets/EssentialSound/ReverbPreset/ThickenVoice=Thicken Voice":{"type":"array::float","value":[0.19597999751567841,0.23931467533111572,0.69696998596191406,0.25,0.5,0.53999996185302734,0.020408162847161293,0.20945435762405396,0.5,1,0.34999999403953552,0.25125628709793091,0.03125]},"$$$/app/Presets/EssentialSound/ReverbPreset/WarmRoom=Warm Room":{"type":"array::float","value":[0.020100502297282219,0.074074074625968933,0.49494948983192444,0.40000000596046448,0.74960309267044067,0.40000000596046448,0.1239795908331871,0.67000001668930054,0.5,0.85000002384185791,0.56000000238418579,0.25125628709793091,0.03125]},"$$$/app/Presets/EssentialSound/ReverbPreset/WarmVoice=Warm Voice":{"type":"array::float","value":[0.19597989320755005,0.89989989995956421,0,0.40000000596046448,0.20000000298023224,0.40000000596046448,0.10204081982374191,0.090000003576278687,0.5,1,0.30000001192092896,0.25125628709793091,0.03125]}}}},"model_volume":{"MaxGain":{"type":"float","value":15},"MinGain":{"type":"float","value":-60}}},"Version":2},"Type":"1c19ca71-c24c-49cd-8dd5-2cc46018507a","Version":1},{"Guid":"353811fa-4179-435e-8e5e-23028ba15a7a","Name":"$$$/app/Presets/DefaultPresetName=(Default)","PresetData":{"ModeID":"generic","Models":{"model_loudness":{"DefaultLoudness":{"type":"float","value":-24},"LoudnessStandard":{"type":"std::uint32_t","value":0},"MaxLoudness":{"type":"float","value":-12},"MinLoudness":{"type":"float","value":-42}},"model_volume":{"MaxGain":{"type":"float","value":15},"MinGain":{"type":"float","value":-60}}},"Version":1},"Type":"1c19ca71-c24c-49cd-8dd5-2cc46018507a","Version":1},{"Guid":"31ba96a6-5d3e-4d89-b1e1-1dbe3c055d0c","Name":"$$$/app/Presets/DefaultPresetName=(Default)","PresetData":{"ModeID":"music","Models":{"model_ducking":{},"model_duration":{},"model_loudness":{"DefaultLoudness":{"type":"float","value":-25},"LoudnessStandard":{"type":"std::uint32_t","value":0},"MaxLoudness":{"type":"float","value":-12},"MinLoudness":{"type":"float","value":-42}},"model_volume":{"MaxGain":{"type":"float","value":15},"MinGain":{"type":"float","value":-60}}},"Version":1},"Type":"1c19ca71-c24c-49cd-8dd5-2cc46018507a","Version":1},{"Guid":"cea63332-1adc-44a9-a6eb-5490f965859b","Name":"$$$/app/Presets/DefaultPresetName=(Default)","PresetData":{"ModeID":"sfx","Models":{"model_loudness":{"DefaultLoudness":{"type":"float","value":-21},"LoudnessStandard":{"type":"std::uint32_t","value":0},"MaxLoudness":{"type":"float","value":-12},"MinLoudness":{"type":"float","value":-42}},"model_pan":{},"model_soundeffects":{"ReverbPresets":{"type":"tree::any","value":{"$$$/app/Presets/EssentialSound/ReverbPreset/HeavyReverb=Heavy Reverb":{"type":"array::float","value":[0.13316600024700165,0.29929900169372559,1,0.95999997854232788,0.85000002384185791,0.5,0.51530599594116211,0.30000001192092896,0.5,0.5,0.5,0.25125628709793091,0.0625]},"$$$/app/Presets/EssentialSound/ReverbPreset/LightReverb=Light Reverb":{"type":"array::float","value":[0.095477402210235596,0.29929900169372559,0.090909101068973541,1,1,0.80000001192092896,0.22449000179767609,0.60000002384185791,0.5,0.69999998807907104,0.30000001192092896,0.25125628709793091,0.0625]},"$$$/app/Presets/EssentialSound/ReverbPreset/OutsideReverb=Outside Reverb":{"type":"array::float","value":[0.091708503663539886,0.043893899768590927,1,0.5,0.20000000298023224,0.80000001192092896,0.18367299437522888,1,0.5,0,0.80000001192092896,0.25125628709793091,0.0625]},"$$$/app/Presets/EssentialSound/ReverbPreset/RoomReverb=Room Reverb":{"type":"array::float","value":[0.057788901031017303,0.44944900274276733,0.49494898319244385,0.89999997615814209,0.10000000149011612,0.15000000596046448,0.081632703542709351,0.40000000596046448,0.5,0.80000001192092896,0.20000000298023224,0.25125628709793091,0.0625]}}}},"model_volume":{"MaxGain":{"type":"float","value":15},"MinGain":{"type":"float","value":-60}}},"Version":1},"Type":"1c19ca71-c24c-49cd-8dd5-2cc46018507a","Version":1}]</property>
    </properties>
  </session>

  <files>
    <file absolutePath="D:\Gestion du son\Montage Bigard\Conformed Files\jean-marie-bigard-son-coup-de-gueule-en-pleine-emission 48000 1.wav" id="0" importerPrivateSettings="Compression:0:0;LargeFileSupport:0:0;SampleType:0:1;" mediaHandler="AmioWav" recoveryID="2b68c6d8-c185-4037-b903-76d39255badc" relativePath="../Conformed Files/jean-marie-bigard-son-coup-de-gueule-en-pleine-emission 48000 1.wav"/>
    <file absolutePath="D:\Gestion du son\Montage Bigard\Bounced Files\jean-marie-bigard-son-coup-de-gueule-en-pleine-emission 48000 1_2.wav" id="1" importerPrivateSettings="Compression:0:0;LargeFileSupport:0:0;SampleType:0:1;" mediaHandler="AmioWav" recoveryID="9a8ba7d1-dd0d-4a5a-938b-70a193a9f9dd" relativePath="../Bounced Files/jean-marie-bigard-son-coup-de-gueule-en-pleine-emission 48000 1_2.wav"/>
    <file absolutePath="D:\Gestion du son\Montage Bigard\Bounced Files\jean-marie-bigard-son-coup-de-gueule-en-pleine-emission 48000 1_1_2.wav" id="2" importerPrivateSettings="Compression:0:0;LargeFileSupport:0:0;SampleType:0:1;" mediaHandler="AmioWav" recoveryID="1ef30ebb-5620-4679-bfd5-d95a5991c179" relativePath="../Bounced Files/jean-marie-bigard-son-coup-de-gueule-en-pleine-emission 48000 1_1_2.wav"/>
    <file absolutePath="D:\Gestion du son\Montage Bigard\Bounced Files\jean-marie-bigard-son-coup-de-gueule-en-pleine-emission 48000 1_3.wav" id="3" importerPrivateSettings="Compression:0:0;LargeFileSupport:0:0;SampleType:0:1;" mediaHandler="AmioWav" recoveryID="8b6407e7-a7bb-48d6-b343-569831c688b2" relativePath="../Bounced Files/jean-marie-bigard-son-coup-de-gueule-en-pleine-emission 48000 1_3.wav"/>
    <file absolutePath="D:\Gestion du son\Montage Bigard\Bounced Files\jean-marie-bigard-son-coup-de-gueule-en-pleine-emission 48000 1_4.wav" id="4" importerPrivateSettings="Compression:0:0;LargeFileSupport:0:0;SampleType:0:1;" mediaHandler="AmioWav" recoveryID="8f57e871-6114-4049-a868-49739e61a60c" relativePath="../Bounced Files/jean-marie-bigard-son-coup-de-gueule-en-pleine-emission 48000 1_4.wav"/>
  </files>

  <audioDevice inputID="" outputID="ABD855BF-12EF-4602-8AF4-585D28153768">
    <inputPort id="1" name="Entrée stéréo par défaut"/>
    <outputPort id="1" name="Sortie par défaut"/>
    <outputPort id="2" name="[01M] Speakers/Headphones (Realtek(R) Audio) 1"/>
    <outputPort id="3" name="[02M] Speakers/Headphones (Realtek(R) Audio) 2"/>
    <outputPort id="4" name="Sortie stéréo par défaut"/>
    <outputPort id="5" name="[01S] Speakers/Headphones (Realtek(R) Audio) 1"/>
    <outputPort id="6" name="Sortie Surround par défaut"/>
  </audioDevice>

</sesx>
